<svg xmlns="http://www.w3.org/2000/svg" width="436" height="635" fill="none" id="man-holding-leg-up"><path fill="#fff" fill-rule="evenodd" d="M431.048 345.997c-1.958-.562-4.404-.706-6.546-.809-7.57-.444-15.29 3.159-22.713 4.784-3.25.802-6.69 1.746-10.168 2.45-3.087.418-6.278.732-9.487.932-2.594.077-5.612-.121-6.497 2.601-5.213 1.009-9.828 1.429-14.798.571.466-1.581.731-3.233.25-4.936.243-.404.573-.949.75-1.317h-.597c-8.723-3.486-18.155-5.867-26.923-9.479-11.445-4.118-28.3-12.075-41.524-17.508.896-4.902 1.229-9.882.848-14.724l.532-.429c.174-.951.446-2.09.937-2.952.624-1.653.639-3.908.886-5.776.517-3.654.862-9.154-.078-13.492-.411-5.883-4.383-10.417-8.665-14.055-5.258-5.192-10.522-10.257-15.655-15.649-28.409-28.915-30.655-65.334-75.127-76.402l-.022-.172c-.35-.39-.493-.7-.892-.083-1.469-.562-3.3-.515-4.529-1.464-2.183-1.989-3.732-4.284-4.745-7.007-.78-5.149-.228-13.084-4.746-16.379-5.018-3.001-31.679-5.138-33.978 1.424-1.427 1.338-2.076 3.037-2.522 5.118-1.485 2.805-2.422 5.916-3.919 8.764-3.181 6.389-5.243 4.974-10.86 6.434-.61-1.357-2.461-1.084-3.81-.887-16.334 2.292-36.25 8.547-43.243 23.876l.595-.076c-12.072 22.646-4.243 51.444-2.084 75.442 1.746 21.332-.251 42.765-4.997 62.662-5.826 21.109-6.16 44.72 5.398 63.827 1.175 2.187 2.606 5.278 5.137 3.906 1.387 1.047 2.945 1.77 5.097 2.4.593.429 1.208 1.151 1.829 1.46.029.041 1.029-.534 1.081-.55 1.89 2.693 105.652 11.692 116.42 13.089 9.486 1.142 22.021 4.058 29.752-2.774 6.389-1.823 13.074-6.568 18.18-11.279 3.098 44.862 4.812 136.737 7.576 137.377 1.21.41 2.843.9 4.212 1.292.008 3.223.249 6.885-.005 10.053-.424 3.579-1.5 7.805-1.987 11.566-2.091-.139-2.706 1.955-2.949 3.378-1.806 11.753-1.752 21.228-1.623 34.147 21.229 12.484 46.109 19.35 69.996 27.419 2.288 1.716 7.246-.141 9.888-.605 9.172-1.803 19.594-7.136 17.278-16.914-1.695-7.363-8.812-11.599-14.803-15.931-6.555-4.741-13.465-9.479-19.493-15.124-4.836-4.549-8.447-8.077-12.48-13.21-1.789-2.388-3.697-6.31-6.103-8.069 2.542-3.011-2.594-.189-4.539-.015a148.861 148.861 0 0 0-4.259-15.696l1.651.075c5.421-5.055 8.46-29.32 8.837-36.519 2.718-46.928 2.653-101.017-8.247-140.539 8.279 5.09 17.359 9.342 25.593 14.377 5.193 3.037 10.461 7.254 16.281 8.727.379 1.087 1.767 1.509 2.524.445 1.042.128 2.384-.303 2.499-.777 1.066-2.176 2.609-4.52 2.424-6.884l-1.43-3.311c3.203 1.3 6.685 4.035 10.104 4.286 6.905 23.022 20.51 10.125 33.602 1.165a5086.445 5086.445 0 0 0 24.859-17.476c7.055-5.603 20.828-10.92 14.076-22.018" clip-rule="evenodd"></path><path fill="#000" fill-rule="evenodd" d="M134.272 175.035c6.669-1.618 7.808-17.583 11.835-15.309 2.328 2.021-1.48 5.835-2.154 8.117l-.295.579c-1.367 2.658-2.912 5.306-5.604 6.839-1.731 1.819-6.904.033-6.144 2.931 2.657 8.733 16.754 14.781 25.062 17.5 12.914 4.844 33.805 3.205 36.839-13.032-7.084-1.295-12.32-14.057-7.955-19.371.149 5.162 1.561 10.488 5.618 13.985l.224.206c.714.65 1.639 1.427 2.56 1.282.899-1.249 2.643-.538 3.157.781 40.33 6.961 49.314 50.397 74.712 75.964 5.073 5.334 10.377 10.441 15.612 15.612 5.347 4.236 9.131 10.142 9.394 17.077.478 3.856.241 7.717-.27 11.58l-.035.349c-.237 2.394-.378 4.965-1.519 7.09-.197.721-.117 1.631-.741 2.139a58.17 58.17 0 0 1-.734 13.288l1.946.867c21.412 9.523 43.071 18.499 65.397 25.638 1.909-.346 1.753 1.869.829 2.876.244 1.185.27 2.417-.016 3.588 4.089.587 8.241.099 12.277-.645 1.277-2.808 4.669-2.658 7.291-2.737a128.9 128.9 0 0 0 9.746-.972c7.97-1.778 15.797-4.118 23.69-6.174 5.282-1.484 10.979-1.414 16.277-.047a22.703 22.703 0 0 1 2.434 3.225c4.843 7.5.07 14.372-6.691 18.311-10.847 7.678-21.698 15.347-32.594 22.954l-.791.564c-12.964 9.265-27.548 20.993-34.472-1.558-2.327-.272-4.366-1.832-6.534-2.752.583 2.706-1.158 5.44-2.359 7.76-.517 1.321-1.93 1.757-3.235 1.744-1.117 1.095-3.214.664-3.945-.634-5.926-1.694-10.822-5.649-16.068-8.722-7.458-4.523-15.282-8.38-22.848-12.712 12.568 51.963 9.494 106.089 6.15 158.983l-.024.477c-.414 7.723-2.188 11.376-8.602 16.109 1.117 3.404 2.117 6.821 2.879 10.322.269.813 1.508.048 1.518 1.163 2.279-.532 6.91.038 5.294 3.185 4.576 3.834 7.673 9.028 11.684 13.399 7.063 8.454 16.296 14.746 25.349 20.946 20.812 10.589 22.004 28.939-2.345 35.208l-.244.057c-3.353.806-7.391 2.648-10.642 1.097-4.862-.935-9.688-2.828-14.445-4.269-19.156-6.33-37.892-13.741-56.046-22.259-.658-.309-1.03-1.017-1.048-1.724.203-5.845-1.386-37.871 4.683-38.561 1.355-6.543 1.568-13.297 1.322-19.975-1.969-.619-3.96-1.215-5.999-1.602-1.98-.622-5.076-.762-6.402-2.364-.476-.171-.826-.597-.754-1.269a635.742 635.742 0 0 0 2.478-30.174c2.031-33.79 1.342-67.686-.972-101.439-4.766 4.116-10.198 7.72-16.245 9.637-3.338 3.339-8.69 4.056-13.246 4.46-5.859.362-11.615-.806-17.397-1.533-9.818-1.234-19.569-.142-29.316 1.069l-3.331.414c-23.863 2.614-49.653 3.154-71.894-7.03-4.188.371-9.386-4.148-11.999-7.167-1.153.711-2.287-.679-3.206-1.41-1.517-.46-3.238-1.121-4.615-2.086-3.492 1.141-5.376-3.386-6.703-5.848-21.057-36.005 2.394-71.845.63-110.026 1.068-29.934-12.606-61.119.61-89.829 2.673-12.149 18.31-20.545 30.079-23.633 3.792-.625 18.15-5.808 19.731-1.449.748-.982 2.026-1.055 3.172-1.06Zm174.665 389.823c-1.973.211-3.897.333-5.848.69-7.119 1.166-13.91 3.918-20.027 7.742-1.982 1.233-3.75 2.788-6.024 3.475-4.672 1.694-9.264-2.512-8.921-7.059-1.303 11.428-1.079 23.187-.403 34.672a601.66 601.66 0 0 0 55.983 22.01c4.284 1.793 9.357 2.367 13.291 4.791 6.709-.423 13.462-2.775 19.097-6.453 9.347-6.475 3.142-16.747-4.606-21.266-17.057-7.686-31.576-23.24-42.542-38.602Zm-37.371-16.901c-.357 3.388 2.221 8.665 1.857 15.417-.28 2.108-.938 4.317-.709 6.433 1.049 7.852 9.563-2.126 13.082-3.219 4.994-2.743 10.422-4.611 16.001-5.632-.034-1.811-1.235-2.533-1.393-4.322-.226-2.637-.214-5.169-.334-7.831-7.255 3.295-20.808.965-28.504-.846Zm39.091 16.389c-.126.084-.26.155-.397.22 1.009 1.219 1.882 2.572 3.078 3.62l-.509-.789c-.681-1.053-1.378-2.102-2.172-3.051ZM85.321 283.441c-.365 1.483-1.031 2.878-2.029 4.065 5.15 41.698-21.349 76.46 3.015 115.229.308.144.59.322.86.545.143-.095.286-.196.427-.296 11.42-20.177 27.675-37.582 40.627-56.89 2.486-4.847 6.579-9.725 8.146-15.324-26.029-10.263-36.426-25.237-51.046-47.329Zm342.546 63.248c-1.104.394-2.332.069-3.51.048-4.181-.089-8.267 1-12.267 2.101-11.632 3.177-23.325 5.989-35.242 7.87a9.819 9.819 0 0 0-.681.77c.207.35.239.786-.061 1.22-1.798 3.429-.345 7.628-1.651 11.298-1.892 7.431-6.926 15.813-14.437 18.45 2.505 2.384 4.3 5.452 6.881 7.752 6.342 4.341 13.327-2.129 18.505-5.598a4640.714 4640.714 0 0 1 29.654-20.736c4.44-3.675 14.262-8.306 16.387-13.174 1.361-3.733-1.116-7.369-3.578-10.001Zm-67.939 9.475c-4.244 8.641-6.693 17.828-9.144 27.106 2.549.7 4.897 1.796 7.402 2.533 3.529.793 8.511-6.016 10.28-8.719 1.824-3.022 3.101-6.344 3.693-9.823.5-3.408-.033-6.947 1.452-10.104-4.597.469-9.26.567-13.683-.993Zm-252.27-17.83c3.984-1.114-5.081 7.887-5.603 8.848-5.894 6.948-11.294 14.288-16.653 21.649l-1.625 2.235c-.156.226-1.231 1.814-.454 1.612.072-.019.105.075.048.114-4.956.875 21.897-33.846 24.287-34.458Zm97.145-4.248c.322-.97-1.208-1.384-1.53-.42l-1.016 3.054c-3.833 11.541-7.643 23.098-12.225 34.37-.383.945 1.149 1.357 1.53.422 4.983-12.266 9.055-24.87 13.241-37.426Zm44.559-4.041c-1.398 6.621-4.928 12.591-7.069 18.92 4.02-.885 7.117-4.626 9.46-7.843l.07-.107c1.106-1.699 2.391-4.353 4.901-3.154 3.811 2.21 1.081 10.05 1.01 13.766-.483 5.093-2.142 9.858-3.272 14.806 2.905-1.982 3.74-5.891 5.156-8.937l5.449-13.054c4.006-5.481 2.146 10.932 1.939 12.481-.326 3.402-1.761 6.825-1.198 10.252 2.259-2.428 3.682-5.479 4.878-8.574 1.659-4.305 3.173-8.665 4.751-12.998.546-1.388 2.615-.901 2.315.628-.102 4.918-.183 9.836-.261 14.754l-.059 3.688c-.011.699-.357 2.742.852 2.177 6.353-6.658 7.982-19.971 7.155-28.915-12.487.301-25.228-1.317-36.077-7.89Zm111.125 24.838c-.051.163-.11.325-.169.488.036.007.074.015.11.024.023-.172.044-.342.059-.512Zm-277.152 0c-1.385-1.021 21.897-30.871 20.388-22.254-6.495 7.674-14.07 14.399-20.388 22.254Zm205.614-65.959c-21.774-5.108-40.948 13.972-62.814 11.09.253 6.833.605 13.713.466 20.55 29.038 2.392 25.734 14.733 59.161 13.49 4.32-2.889 6.094-20.594 5.729-25.939.279-6.32-5.167-9.157-10.592-10.265-1.96 1.181-5.478-2.345-2.567-3.585a34.318 34.318 0 0 0 10.617-5.341ZM128.318 176.917c-7.746.763-15.418 2.871-22.538 6.129-26.317 7.586-30.112 38.349-26.947 61.661 1.31 17.727 6.374 35.066 17.018 49.481 28.338 43.156 75.275 36.323 119.734 30.615 1.602-1.114 4.318-.323 5.862-1.794a1.537 1.537 0 0 1-.431-.227c.742-.579 1.316-1.593 1.487-2.671l.321.032c.314-6.693.063-13.255.164-19.895-14.608-4.001-30.275-6.046-45.081-10.03-1.683 1.172-3.623-.177-5.267-.814a344.562 344.562 0 0 0-12.892-5.166l-1.083-.408a352.629 352.629 0 0 1-8.441-3.27l-1.048-.426c-1.602-.654-5.648-3.076-7.396-1.564l.141.304c1.037 2.258 4.607 10.613.218 8.96-3.564-2.499-5.411-19.924-8.941-20.078-1.214 3.244-2.084 6.611-2.282 10.079-.072.78-1.099 1.438-1.716.709-4.187-5.505 2.137-11.502 2.306-17.313.399-6.757-2.595-13.08-4.087-19.547l-.091-.446c-.875-4.196-2.236-9.283-1.875-13.047l.869 3.267c.871 3.269 1.764 6.538 2.788 9.761 2.541 8.049 7.13 16.341 4.58 24.954 5.116.17 5.981 8.233 7.902 11.916 3.109-4.029 24.987 5.631 29.979 7.181l.963-1.091c15.635-17.704 26.922-29.686 51.155-15.681-4.187-13.486-4.591-27.81-5.305-41.814.245-2.665-1.297-9.692.877-11.147.378.055.745.169 1.091.321v1.38c.01 2.674.135 7.108 1.258 8.115l.515 5.295c1.349 13.768 2.88 27.525 6.997 40.792 9.882 5.518 18.899 12.426 27.382 19.879l.967-.352c10.481-3.832 23.093-8.745 33.81-3.962-.179-2.7-1.223-5.284-2.679-7.568-2.428-.601-4.017-3.158-5.754-4.861-5.508-5.909-11.163-11.683-16.545-17.712-22.964-24.671-32.734-65.182-68.796-74.752-2.384 19.936-27.923 23.117-43.313 16.294l-.584-.223c-9.567-3.687-20.378-9.253-23.738-19.392l-.14-.294c-.345-.715-.757-1.444-1.414-1.58Zm5.676 113.448c.028-.03.082.011.058.045-4.483 5.619-8.132 13.284-3.676 19.996.824 1.511-1.101 2.963-2.333 1.811-6.185-7.015.677-16.522 5.951-21.852Zm155.998 1.27a39.47 39.47 0 0 1-7.91 4.37c.008.322-.149.667-.291.92 3.687.292 7.526 1.243 10.114 3.928.126-.982.249-1.967.343-2.951.238-2.534-.196-4.802-2.256-6.267Zm-169.546-24.84.029-.135c.02-.154.253-.164.246 0-.085 2.008-1.549 3.437-2.788 4.868l-5.52 6.364c-3.076 3.697-7.609 7.413-6.589 12.769.019 1.902-2.368 2.31-3.337.911-3.851-7.336 8.273-13.577 12.36-18.31 1.919-2.048 4.943-3.555 5.599-6.467Zm57.727 22.023c.057.091.098.19.12.292.646.068 1.289.142 1.932.22l-2.052-.512Zm-96.437-17.156c.115.766.223 1.534.326 2.304l.102.769.016-.068c.052-.199.152-.373.281-.511l.045-.045a95.486 95.486 0 0 1-.77-2.449Zm177.006-7.934c1.545-.165-5.455 4.862-5.842 5.484-.564.49-1.224-.381-.622-.805 2.175-1.533 4.319-3.106 6.464-4.679Zm-13.619-14.787c1.075-.44 1.805 1.348.785 1.846-3.714 1.815-7.641 3.098-11.063 5.485-.15.105-.338-.139-.196-.251l.411-.325c3.152-2.5 6.301-5.217 10.063-6.755ZM83.019 226.338c1.038 4.882 6.654 6.485 11.012 7.785l1.362.518c3.849 1.471 7.836 3.126 10.605 6.235 1.085 3.506-6.659-2.602-7.74-2.911-5.288-3.275-14.843-3.831-15.24-11.627Zm114.647-45.58c.029.248.043.502.051.755.325 0 .649.003.974.013a5.237 5.237 0 0 1-1.025-.768Z" clip-rule="evenodd"></path><path fill="#fff" fill-rule="evenodd" d="M179.582 172.643c-5.565.033-10.296-1.544-13.905-4.153-4.504-1.604-9.937-4.078-13.237-6.675-1.287.328-2.828-1.037-3.813-1.758-6.124-4.567-10.932-11.252-12.356-17.948-2.2 2.772-5.329 2.887-8.327 1.51-6.284-3.559-6.049-11.052-3.787-16.651-4.756-10.656-8.052-38.787-.792-50.14 1.485-1.7 3.665-2.716 5.234-4.458 1.396-1.521 2.724-3.077 4.348-4.281 4.957-3.767 13.494-5.773 18.839-6.716 22.313-4.817 39.457 3.84 59.668 11.144-1.163 2.905-2.772 5.554-4.616 8.024 5.018 1.87 2.713 6.075-1.18 8.207l-2.317-1.125c3.612 12.907 11.926 45.004 8.339 55.311-2.861 16.081-15.415 29.826-32.098 29.709" clip-rule="evenodd"></path><path fill="#000" fill-rule="evenodd" d="M182.806 174.028c-7.227.741-15.813-.965-20.63-6.828a.921.921 0 0 1-.02-1.146.861.861 0 0 1 .528-.324.874.874 0 0 1 .593.107l.443.246c3.291 1.815 6.708 3.362 10.437 4.025 3.839.681 7.748.605 11.554-.261 6.931-1.577 12.54-5.599 16.669-10.904 4.607-5.919 7.374-13.433 8.079-20.948.855-9.106-1.127-18.158-3.178-26.975-2.156-9.265-4.511-18.483-7.248-27.594a1.97 1.97 0 0 1-.08-.767c-.808-.316-1.667-.228-2.522.06-1.562.527-3.118 1.714-4.416 2.695-.47.355-.907.685-1.3.953-1.609 1.1-3.369 1.891-5.336 2.016-2.046.129-4.052-.506-5.91-1.3-.944-.405-1.873-.823-2.798-1.24-2.634-1.188-5.237-2.364-8.082-3.128a43.534 43.534 0 0 0-11.694-1.493c-7.046.064-14.113 1.875-18.43 7.825-1.75 2.41-2.89 5.18-2.001 8.155.484 1.618 1.397 3.087 2.394 4.438l.342.461c.546.741 1.021 1.48 1.164 2.266.12.659.027 1.356-.444 2.12-.297.481-.674.912-1.054 1.342-.273.31-.548.619-.784.952a12.299 12.299 0 0 0-1.228 2.15c-.647 1.477-.922 3.066-.979 4.669-.07 1.933.203 3.824.473 5.718.191 1.343.382 2.688.459 4.048a.768.768 0 0 1-.674.835.955.955 0 0 1-.193.004c.032.13.06.262.085.394a7.116 7.116 0 0 0-.417-.488l-.028-.015a.86.86 0 0 1-.36-.373 7.957 7.957 0 0 0-.66-.548c-1.202-.896-2.606-1.426-4.014-1.444-1.357-.017-2.718.445-3.764 1.419-2.08 1.938-2.689 5.101-2.711 7.816-.022 2.772.621 6.099 3.041 7.82.971.69 2.156 1.105 3.351 1.117.99.01 1.938-.34 2.871-.673.287-.103.574-.205.859-.298.325-.106.621-.099.878-.022.291.087.537.267.722.506a1.742 1.742 0 0 1 .207 1.75c-.032.071-.066.14-.102.208l.533.874c2.038 3.338 4.112 6.615 6.832 9.485 1.561 1.646 3.216 3.201 5.031 4.561l.261.194c.157.115.331.256.516.408.529.432 1.164 1.012 1.756 1.035.176.007.33-.015.469-.033.337-.045.62-.058.898.056.224.091.456.261.695.612.161.238.244.536.244.839 0 .304-.084.608-.233.849-.309.497-.682.806-1.086.981-.452.195-.95.224-1.469.128-1.277-.238-2.69-1.294-3.59-1.983l-.174-.133c-1.993-1.519-3.882-3.199-5.543-5.077-2.828-3.199-5.368-6.969-6.672-11.089-.92.603-2.056.89-3.244.935-1.73.066-3.562-.379-4.911-1.018-2.975-1.409-4.781-4.073-5.628-7.136-.983-3.558-.664-7.648.581-10.844.036-.093.074-.186.112-.28-3.832-9.694-5.01-20.46-4.682-30.806.154-4.843.484-9.924 1.628-14.647.513-2.117 1.404-4.133 2.827-5.8.811-.95 1.806-1.69 2.806-2.427.866-.64 1.735-1.277 2.466-2.075l.346-.379.225-.247c1.263-1.39 2.492-2.739 4.025-3.879 1.778-1.322 3.739-2.356 5.778-3.216 4.391-1.85 9.117-2.96 13.792-3.818 10.115-1.857 20.498-1.949 30.488.661 4.645 1.214 9.153 2.875 13.653 4.533l1.254.462c3.497 1.286 6.996 2.566 10.495 3.847l4.879 1.785c.353.13.698.408.895.754.192.337.249.731.094 1.123a35.063 35.063 0 0 1-3.789 7.104c.532.362.985.843 1.328 1.406.434.712.691 1.555.708 2.45.058 2.995-2.671 5.025-4.936 6.493-.211.137-.42.218-.621.255 2.194 8.378 4.294 16.784 6.079 25.257l.123.587c1.838 8.867 3.025 17.916 1.286 26.901-1.497 7.737-4.976 15.204-10.411 20.968-5.326 5.649-12.473 9.205-20.206 9.998Zm-47.587-51.01c-.946-2.998-1.448-6.261-1.086-9.301.228-1.91.803-3.75 1.74-5.434.537-.964 1.191-1.857 1.904-2.698l.246-.283c.125-.144.249-.277.287-.443.023-.097 0-.202-.059-.328-.13-.28-.372-.549-.599-.812a8.95 8.95 0 0 1-.403-.491c-2.074-2.804-3.62-6.141-3.118-9.696.491-3.469 2.767-6.702 5.191-9.138 5.336-5.365 13.609-6.598 20.857-6.302 4.219.172 8.431.914 12.449 2.211a47.85 47.85 0 0 1 5.8 2.312l.417.2.675.329c1.471.72 2.948 1.448 4.546 1.84 3.119.765 5.235-.846 7.459-2.471.762-.557 1.536-1.121 2.359-1.617l.169-.1c1.484-.859 3.259-1.437 4.964-1.41 1.481.022 2.91.494 4.074 1.61.238.23.376.48.44.728.129.18.233.395.301.65.416 1.56.831 3.123 1.245 4.686l.338-.217c1.001-.65 2.09-1.392 2.582-2.479.189-.418.162-1.115-.076-1.627-.084-.18-.194-.339-.346-.438a.625.625 0 0 0-.4-.094 1.962 1.962 0 0 1-1.018-.13 1.685 1.685 0 0 1-.784-.662 1.505 1.505 0 0 1-.218-.986c.038-.305.169-.623.429-.921 1.708-1.967 3.147-4.136 4.241-6.49l-7.234-2.673c-2.579-.953-5.158-1.904-7.739-2.851l-1.413-.519c-4.693-1.718-9.413-3.398-14.293-4.505-9.699-2.199-19.813-1.682-29.484.388l-.585.126c-4.058.884-8.172 1.953-11.897 3.812-1.828.912-3.566 2.021-5.059 3.423-.659.618-1.255 1.296-1.851 1.973-.836.948-1.672 1.894-2.666 2.693l-.922.737c-1.372 1.104-2.609 2.18-3.383 3.89-.809 1.79-1.196 3.767-1.511 5.694-.795 4.852-1.108 9.782-1.078 14.697.05 8.253 1.306 16.338 2.892 24.394 1.273-1.819 3.06-3.229 5.355-3.53a7.269 7.269 0 0 1 6.262 2.253Zm-2.404 9.8c-1.675-.648-3.435-.86-5.207-.551a.752.752 0 0 1-.512-.092.814.814 0 0 1-.335-.379.717.717 0 0 1-.012-.538.699.699 0 0 1 .366-.387c1.92-.914 4.053-1.318 6.171-1.031l.209.03c1.083.16 2.605.498 3.747 1.162.897.522 1.553 1.241 1.717 2.181a1.786 1.786 0 0 1-.32 1.371 1.449 1.449 0 0 1-1.231.582c-.954-.027-1.519-.43-2.198-.951l-.255-.194a9.07 9.07 0 0 0-2.14-1.203Z" clip-rule="evenodd"></path><path fill="#000" fill-rule="evenodd" d="M170.79 138.34c4.299-.521 8.465.793 12.668 1.456 2.218.349 4.44.61 6.685.707.452.02.904.031 1.355.041.043-.398.265-.762.748-.981.989-.447 1.78-.649 2.866-.606.994.039 1.991.141 2.97.32 1.777.325 3.562 1.064 4.862 2.346 3.008 2.968 2.55 7.736.225 10.968-4.802 6.68-13.567 6.991-21.075 6.903l-.692-.009c-6.836-.097-16.615.92-19.721-6.845-1.142-2.856-.983-6.166.415-8.905 1.668-3.267 5.178-4.969 8.694-5.395Zm21.352 11.122-.061.003c-3.152.121-6.303.206-9.456.262.094.809.191 1.618.301 2.425.086.634.179 1.269.275 1.902.041.268.19.685.148.951l-.015.105c.162.073.309.19.418.361.038.059.066.119.093.178 2.448.02 5.083-.028 7.578-.472l.005-.054c.046-.319.178-.533.355-.68.175-1.015.159-2.097.227-3.104.042-.626.088-1.251.132-1.877Zm-11.925.308a234.66 234.66 0 0 1-6.816.041l-1.031-.016c.218 1.166.455 2.329.652 3.503.205 1.224-.873 2.001-1.807 1.97.105.017.21.035.314.05 2.917.412 5.946.302 8.906.299-.159-.928-.095-1.975-.119-2.75l-.004-.12c-.045-.993-.077-1.985-.095-2.977Zm-15.43-.214c.079.607.232 1.2.462 1.753.969 2.335 3.192 3.424 5.544 3.883-.408-.141-.732-.479-.814-1.058-.204-1.44-.277-2.904-.282-4.366-1.64-.015-3.29-.05-4.91-.212Zm35.903-.498c-1.167.274-2.523.148-3.668.2-1.073.049-2.146.091-3.219.135.051.731.1 1.462.154 2.193.069.945.075 1.943.257 2.883 2.158-.735 4.093-1.915 5.544-3.802.362-.47.686-1.022.932-1.609Zm-30.393-6.887c-1.943.459-3.781 1.43-4.769 3.205-.587 1.053-.845 2.302-.795 3.532 1.642-.191 3.312-.263 4.974-.323.006-.299.013-.598.022-.896l.025-.763c.045-1.457.068-3.286.543-4.755Zm10.055.178-.855-.096c-2.375-.271-4.749-.554-7.125-.392-.344.024-.693.061-1.042.113.419 1.513.384 3.289.56 4.787.067.579.153 1.154.248 1.726l.412-.02c2.549-.137 5.1-.222 7.651-.323 0-.479.003-.957.01-1.436l.01-.479c.029-1.223-.05-2.6.131-3.88Zm11.929-.195c-2.488.401-5.059.487-7.503.49a32.962 32.962 0 0 1-2.927-.145c.064.518.097 1.043.145 1.554.096 1.033.206 2.064.326 3.095l.106.902c3.136-.142 6.271-.296 9.406-.455l.442-.023.124-1.733c.085-1.156.178-2.311.309-3.462l-.099-.035a1.613 1.613 0 0 1-.329-.188Zm1.081.431c.137 1.634.213 3.274.313 4.911l2.067-.11 1.033-.058c1.339-.077 3.06-.482 4.384-.104.101-1.202-.243-2.373-1.329-3.18-1.907-1.419-4.335-.914-6.468-1.459Zm-7.061-14.607c3.078-1.76 10.799-3.559 11.288 1.971.225 2.545-1.67 4.654-3.883 5.595l-.083.034c-2.075.852-5.753 1.814-7.548-.033-1.495-1.537.488-4.294 2.345-3.034.954.647 2.963.17 4.028-.138l.067-.019c1.149-.338 2.681-1.417 2.206-2.83-.421-1.25-2.21-1.479-3.331-1.519-1.673-.06-3.301.328-4.958.454-.263.02-.344-.359-.131-.481Zm12.747-8.893c4.177-.195 6.775 4.359 5.814 8.09-.166.644-.887 1.276-1.583 1.204l-.175-.017a1.451 1.451 0 0 1-.261-.042c-.661-.183-1.254-.869-1.206-1.581l.013-.207c.097-1.763-.094-3.794-2.192-4.221-1.779-.362-2.772 1.348-2.793 2.922-.004.28-.319.475-.566.325-1.286-.782-1.509-2.337-1.018-3.676.623-1.696 2.181-2.713 3.967-2.797Zm-30.994.977c3.039-1.012 6.318.605 7.79 3.289.517.149 1.032.546.96 1.155-.103.875-.259 1.427-.867 2.091-.951 1.038-2.731.507-3.127-.771l-.016-.058c-.449-1.652-2.271-2.742-3.93-2.164-1.938.676-1.882 2.72-3.242 3.911a.47.47 0 0 1-.543.07c-1.444-.697-1.184-2.795-.669-3.995.675-1.575 1.987-2.976 3.644-3.528Zm-4.14-9.216c2.463-2.51 8.886-4.938 10.571-.304.321.882-.363 2.073-1.283 2.256-1.507.299-2.844-.354-4.341-.237-1.212.095-2.476.5-3.445 1.25-2.684 2.076-3.274 5.588-5.144 8.23-.091.129-.268.075-.285-.077-.425-3.847 1.23-8.37 3.927-11.118Zm32.121-2.471c1.635-.576 3.485-.527 5.128-.016a9.965 9.965 0 0 1 4.345 2.773c.531.58 1.023 1.221 1.417 1.903.209.361.43 1.107.668 1.552 1.287.742 1.837 2.434.685 3.637l-.052.053-.154.152c-.62.613-1.554.878-2.4.634-1.893-.547-2.123-2.036-2.778-3.616a6.47 6.47 0 0 0-2.073-2.645c-2.125-1.603-5.609-2.113-8.167-1.358-.136.04-.296-.133-.199-.259.485-.627.764-1.141 1.413-1.647a7.558 7.558 0 0 1 2.167-1.163Z" clip-rule="evenodd"></path></svg>