<svg xmlns="http://www.w3.org/2000/svg" width="853" height="859" fill="none" id="cycling"><path fill="#fff" fill-rule="evenodd" d="M831.862 699.601c-12.88 165.024-237.71 188.717-282.592 29.712l-.028.011a92.45 92.45 0 0 0-.677-2.467l.029-.007c-3.983-15.575-5.468-32.434-4.337-48.757l.003.001c2.152-33.682 16.509-67.35 39.551-91.954l.002.003a147.88 147.88 0 0 1 21.014-18.756c14.236 42.926 34.881 81.311 61.044 113.238l-1.012 1.248c1.262.698 2.514 1.395 3.767 2.096.433.525.904 1.113 1.332 1.654-1.747 4.458 1.961 8.785 6.346 9.638-1.335 3.136 1.935 4.376 3.898 4.941 6.468 1.48 14.067 1.802 18.964-1.821 6.323-5.784 4.103-17.197-2.731-21.534.028-.073.052-.147.076-.222a4.542 4.542 0 0 1-2.424-.991c-3.419-1.32-7.409-1.307-10.757.171-22.735-36.93-45.536-77.067-58.154-120.821a143.016 143.016 0 0 1 16.497-6.991l-.003-.008c.151-.051.606-.204.749-.258v.004a139.81 139.81 0 0 1 16.007-4.465l-.001-.005c.477-.098 1.472-.306 1.952-.408l.001.006c9.641-1.942 19.686-2.857 29.69-2.715v-.002l2.26.045-.001.009c3.399.094 6.896.345 10.31.673a6.97 6.97 0 0 1-.153.48c.279.014.551.056.817.121.039-.17.08-.341.118-.511 2.694.304 5.416.672 8.092 1.126v-.002l1.916.332-.001.007c34.349 6.06 66.713 26.431 87.795 54.341l-.001.001c8.897 11.588 16.048 24.5 21.273 38.408h.002l.839 2.275-.005.002c7.02 19.555 9.958 41.025 8.499 62.154l.034-.002ZM586.265 482.969c-51.641 49.149-108.924 94.872-152.646 151.67l-8.176-4.935.825-.158c-2.732-.271-5.259-2.825-7.282-4.487 4.358.306 5.746 1.115 8.343-3.859 9.099-16.344 16.946-33.019 26.757-49.152 8.027-14.223 16.061-28.311 24.083-42.679 4.239-6.19 11.322-22.668-.352-30.954 30.586-13.948 65.825-30.703 98.491-51.027 2.643 11.948 6.767 23.505 10.556 35.023l-.599.558ZM410.777 396.53c-4.377-4.022-9.196-7.904-11.393-13.737a140.287 140.287 0 0 0 20.918 1.876c.427 0 .82-.4.825-.845.152-8.603.14-18.072-.639-27.265 3.671 1.818 6.619-.257 9.944-2.039 3.482 2.6 7.077 1.829 11.333 0 .04-.012 17.193-6.362 17.232-6.368 3.825-1.196 5.467-2.336 6.429-4.766.495.132 1.493.393 1.988.52 4.107 6.089 63.718 24.994 69.016 17.983 5.544 2.351 12.172.448 18.04.028 4.586.386 9.25 1.417 13.829.836.905 4.745 1.82 9.491 2.738 14.232-12.308 17.926-14.14 26.045-10.632 47.582.758 4.456 2.228 5.952 7.717 6.6-32.616 17.846-65.415 34.948-97.622 54.031a1681.527 1681.527 0 0 0 13.373-32.561c1.522-3.311 3.559-8.176 3.721-12.706 1.26-16.823-51.276-32.25-71.858-37.818-.582-2.394-3.224-3.806-4.959-5.583Zm167.549 30.837c.237-.409 1.166-2.362 1.392-2.814.525.994 1.556 2.835 2.215 3.731-1.285.461-4.43 2.179-5.676 2.837l2.069-3.754Zm-182.961 85.654c-.554 2.242-1.057 4.371-1.543 6.417-12.169 6.339-24.27 12.133-36.479 18.344l.387.712c-6.909 4.04-14.426 6.485-21.212 10.681-5.305-22.868-9.349-46.032-12.355-69.379 2.801-.103 5.585-.366 8.416-.943 2.825.07 5.472-.242 7.72-.984a476.031 476.031 0 0 0 49.392 31.884c1.898 1.263 3.875 1.673 6.02 1.869l-.346 1.399Zm-1.972 173.387c-1.905-.188-3.63 1.807-5.464 2.462a607.313 607.313 0 0 0-16.727 8.988c-1.896-11.013-6.637-21.204-6.961-32.591l-.183.344c-.688-1.336-2.089-3.72-2.895-5.003 1.348.314 3.898.899 5.227 1.201l-.149.206c1.722-.296 4.073.796 5.702 1.007 5.91 1.117 11.947 2.262 17.94 3.133-1.541 2.402-1.458 2.531 1.396 2.537-1.633 3.271-2.011 7.232-1.855 10.678.046.626.3.501.619.747.632 1.798 1.871 3.037 3.978 3.824l-.628 2.467Zm-52.064-125.175-.535-1.67.664-.224c-.106-.261-.521-.41-.846-.344l-.061-.19c16.379-6.988 32.409-14.845 48.564-22.289-9.486 27.368-28.339 51.027-33.073 80.053l-2.496.163c-5.561-18.767-10.109-37.988-14.507-56.576l.782-.265c-.108.819.705 1.534 1.508 1.342Zm11.79 135.536c-1.778.604-3.929.82-5.909.617-8.612-1.659-17.386-3.014-25.945-4.354 4.868-46.67-10.704-94.22-42.449-128.459a7687.291 7687.291 0 0 1 37.71-34.04c12.503 60.639 26.716 120.5 37.706 165.862l-1.113.374Zm-52.984-18.386a158.826 158.826 0 0 1-.651 11.184c-35.47-5.537-73.588-11.295-111.89-15.878l1.707-1.84c2.146-2.637-1.465-6.969-3.602-8.178-4.01-2.388-8.504-1.486-12.942.626l-1.47-2.058c8.193-7.413 16.4-14.763 24.557-22.215 9.478 4.037 19.073 7.526 28.634 11.225l-.374 2.299c2.137.01 4.289-.27 6.333-.062 23.622 8.805 48.55 17.278 69.719 23.937l-.021.96Zm-2.331 23.346c-1.443 8.065-3.585 16.022-6.319 23.705l-.02-.011c-29.834 94.375-159.221 126.469-226.372 51.429-75.424-73.812-38.622-220.365 67.046-242.559 6.048 10.874 11.129 21.838 16.555 32.849 2.609 6.365 7.319 12.019 8.387 18.993a315.775 315.775 0 0 1 1.998 7.683c.103.048.207.095.312.141l-.023-.1 2.335-.967c4.671 8.025 10.642 22.093 15.959 30.651 6.887 10.363 6.554 9.61 11.682 10.203-6.095 6.046-12.284 12.19-18.379 18.228-5.406 5.25-10.513 11.924-18.647 13.42-2.646.244-4.89 1.091-6.463 2.874-.367 1.108-.916 2.148-1.54 3.142-2.791 10.492 11.582 18.649 19.082 9.763 45.152 6.918 89.466 12.139 134.639 19.268l-.232 1.288ZM201.077 515.38c18.082-.252 39.953 1.947 63.879.611 1.425-.381 3.06-.663 4.153-1.456 6.377 3.241 12.857 6.584 19.414 9.61-.505 2.841 2.572 4.534 3.551 7.019-8 7.525-16.233 14.884-23.826 22.936-19.166-17.381-42.54-29.93-67.509-36.198l.338-2.522Zm649.574 150.23c-9.127-74.653-74.982-141.017-150.695-144.912l-.382-2.471c3.611-1.404 6.781-4.297 9.423-8.6-23.936-2.395-48.644.427-70.659 8.528-4.087 1.583-8.523 3.156-13.055 2.564-.658-1.3-1.455-2.658-2.331-4.024a.609.609 0 0 1-.11-.027c-1.339-.473-2.622-1.123-3.273-2.45-.602-1.227-.582-2.704-.832-4.023a.76.76 0 0 1 .125-.603c-2.098-3.608-4.048-7.258-8.549-7.662l1.481-1.58c.621-.719.25-1.995-.815-2.214-6.017-21.733-13.373-42.555-19.089-64.425l-1.833.527c-.235-.596-1.685-4.205-1.952-4.873l3.243 2.252-.387-1.5c28.433 11.037 56.041 15.901 82.561 11.277l.013-.078c3.133-.949 6.075-2.3 8.509-4.023 1.537.114 1.947-.801 2.695-3.313 1.563-5.151 3.319-10.342 4.984-15.368 9.556-31.203 22.716-61.171 31.377-92.21.227-.187 1.019-.941.861-.982-34.119-19.895-116.241-13.854-160.768-7.183.773 12.008 3.074 23.764 5.297 35.192-16.171-11.469-31.618-24.964-51.033-30.72l4.57-.93c.747-.123 1.222-1.569.438-1.873l-.899-.322c1.673-12.965-12.942-14.49-21.122-8.108-1.79 1.479-3.786 6.573-.472 7.692l-.147 2.484c-2.725.41-6.218 1.946-9.132 3.436.655-3.961-.808-9.386-5.433-5.651-66.288-30.308-37.531-61.438-42.914-110.576-.344-14.754-2.121-15.681-16.164-22.292-8.103-4.942-16.813-8.403-25.204-12.749l.596-.595-3.374-6.735-.343.101c-1.278-3.082-2.262-6.207-2.842-9.452-.337-3.769-2.102-6.054-6.306-6.775-10.572-2.223-21.146-.521-25.383 10.636l-.053.009c-1.027 2.948-3.011 5.958-5.482 7.395l1.529 1.366-.192.351-2.4-.715c.006-.13.02-.31.031-.441-1.348.612-2.946 1.073-4.58 1.071-51.193-8.683-66.522 31.329-58.913 75.456-3.015 11.388-5.679 22.794-8.43 34.128-8.025 37.833-32.123 61.347-40.331 97.918-2.165 8.887-11.15 25.232-3.261 30.932-1.353 10.445 3.036 21.667 10.863 29.521-11.826.332-28.305 19.6-14.357 29.08 5.074 2.222 11.17 1.966 16.706 2.925l-.427 1.42c.227 1.26 2.349 1.179 3.373 1.054-.003 3.024-.387 6.324.849 9.002.136 1.528.764 2.027 1.075 1.922 2.043.066 4.115-.187 6.178-.067 3.124 5.028 7.799 8.203 12.633 5.635 2.941-1.53 2.89-5.617 5.674-7.689 7.285-4.57 15.563-3.818 23.263-3.696 3.191 10.699 4.63 21.558 7.139 32.358-3.29 4.129-7.056 8.318-11.377 12.704l-.564-.131-.571.177c-3.284-2.935-6.93-7.943-11.59-6.119-38.905-35.185-101.505-29.775-149.605-29.43-21.757.257-44.222.494-66.284 1.497-6.294.146-10.355.611-10.572 5.34-4.16.181-7.25 1.203-11.163 1.506-2.445.129-3.719.325-3.802 1.02.473 6.75.739 13.812 3.094 20.117 2.466 6.239 9.988 6.234 15.73 3.93 2.155-.923.297-3.589.234-5.221a84.344 84.344 0 0 1-2.374-16.43c2.714.213 5.09.34 8.218.381l.052 1.449c5.501.214 28.881.626 34.582-.169-2.339 2.825-3.244 5.725-.999 8.907 5.932 6.602 16.867 3.596 24.657 4.592l.12 2.526C7.313 539.398-39.398 705.716 49.589 791.34c87.021 94.468 253.399 38.216 270.218-87.504 7.241 1.215 14.517 2.176 21.739 3.708-4.265 3.879-10.388 5.841-14.573 9.554-7.26 7.063-9.412 11.703-6.084 15.345l.061-.051c2.666 1.482 5.919 1.357 8.892.349 1.884.256 3.839.551 5.712.552 3.046-.063 5.924-.826 6.729-3.231.088-.914-1.663-2.47-2.516-3.233 4.695-3.275 9.416-7.037 14.803-10.586 1.32-.658 1.941-1.31 2.403-2.467 23.168 8.282 47.425-9.425 62.196-22.57l-.052.23c1.794-1.765 3.68-3.482 5.726-3.785a14.722 14.722 0 0 1 2.008-1.696l10.919.387c2.943.105 6.865.748 9.537-.243 6.191-2.976 3.544-12.098.396-16.301 4.96-.295 9.996-.212 14.923-.876 12.627-1.477 9.038-14.105-1.086-16.963-2.806-3.614-15.272-7.445-15.613-11.985 47.007-49.898 97.799-97.449 144.875-144.598 1.549 5.08 1.873 10.503 1.922 15.636.008 12.346 3.288 24.571 6.267 36.362-108.794 68.666-94.405 248.171 25.254 296.974 117.236 53.66 244.588-56.216 226.406-178.738Z" clip-rule="evenodd"></path><path fill="#000" fill-rule="evenodd" d="M709.147 509.041c-2.395 3.945-5.658 7.528-10.141 9.271 62.001 4.02 117.456 46.821 140.049 103.451 56.589 133.348-75.473 283.021-216.352 222.655-121.346-51.973-135.305-226.43-26.212-298.716-2.397-9.414-4.824-18.992-5.768-28.667-.21-2.359-.262-4.731-.314-7.103-.098-4.434-.195-8.865-1.323-13.195-46.865 46.115-93.729 92.242-140.031 138.903l-1.578 1.602c-.091.093-.2.192-.316.298-.435.399-.964.884-.987 1.385.524 2.019 4.624 4.294 8.476 6.431 2.884 1.6 5.63 3.123 6.63 4.404 11.159 3.72 14.578 17.302.495 19.322-3.133.434-6.301.543-9.464.651-1.136.04-2.271.079-3.404.133 2.95 4.755 4.074 13.653-2.159 16.315-2.367.865-5.172.661-7.792.471a61.37 61.37 0 0 0-2.265-.138l-10.464-.371c-5.455 4.111-6.001 10.746-6.538 17.264-.238 2.889-.474 5.755-1.134 8.368-2.559 19.124-15.829 31.759-35.735 31.763-21.915 1.535-44.577.359-65.82-5.406-.073.113-.22.215-.362.163-2.711-1.649.223-5.159 1.821-6.642-4.427-5.402 2.665-12.836 6.594-16.588 1.954-1.847 4.401-3.172 6.853-4.5 1.943-1.053 3.89-2.107 5.597-3.425-3.874-.774-7.783-1.38-11.692-1.987a546.321 546.321 0 0 1-5.978-.95c-20.617 126.898-180.439 182.016-272.184 86.936-89.017-88.518-44.877-251 81.058-276.919-2.238-.243-4.717-.211-7.259-.179-6.773.086-13.99.177-18.269-4.894-1.69-2.301-2.228-5.756-.602-8.143-3.05.314-54.217.391-32.042-1.555-2.283-.033-4.56-.111-6.83-.277.138 2.263.356 4.523.674 6.769.381 2.707.98 5.347 1.581 7.995.261 1.149.522 2.299.766 3.456.302 1.434-.423 2.851-1.893 3.276-6.454 2.416-14.167 2.526-17.277-4.682-2.204-5.876-2.634-12.304-3.051-18.552a580.09 580.09 0 0 0-.14-2.04c.078-2.04 2.673-2.177 5.02-2.302 1.125-.059 2.194-.116 2.901-.377 2.402-.506 4.788-.821 7.212-1.036.776-5.165 6.768-5.313 11.658-5.433 1.195-.03 2.324-.058 3.295-.157 20.985-.855 41.991-1.098 62.994-1.341 5.529-.064 11.058-.128 16.587-.203l2.903-.044c44.841-.68 94.99-1.441 130.461 29.535 4.166-1.189 7.474 2.062 10.287 4.827.451.443.889.873 1.316 1.271a.737.737 0 0 1 .392-.013c3.636-3.714 7.136-7.553 10.4-11.612-.889-3.875-1.649-7.784-2.408-11.693-1.246-6.413-2.493-12.827-4.313-19.094l-.26-.007c-6.975-.199-15.229-.434-21.228 3.447-1.187.955-1.83 2.298-2.469 3.633-.803 1.676-1.601 3.342-3.463 4.218-5.586 2.979-10.943-.957-13.893-5.536-.907-.029-1.806.009-2.703.047-.937.039-1.871.079-2.812.042-1.578-.088-2.064-1.425-2.269-2.849-1.018-2.339-.969-4.888-.921-7.365l.012-.628c-1.476.089-3.795-1.126-3.297-2.784-1.447-.211-2.916-.356-4.388-.501-3.851-.38-7.719-.762-11.262-2.341-14.143-8.661-.383-29.012 12.427-31.1-6.873-7.591-10.72-17.899-9.68-28.075-6.025-4.854-2.001-16.14 1.097-24.83.944-2.647 1.802-5.053 2.264-6.964 3.173-14.58 9.77-28.056 16.31-41.416l.298-.61c2.028-3.915 3.925-7.463 5.703-10.789 8.077-15.109 13.702-25.631 18.015-45.078.625-2.575 1.245-5.152 1.865-7.729 2.105-8.752 4.211-17.505 6.512-26.205-.172-1.288-.333-2.46-.482-3.544-1.043-7.61-1.497-10.92-1.072-20.034 1.122-36.892 19.146-59.04 61.949-53.064 5.423-.363 8.317-3.978 9.911-8.767.146-.33.657-.086.572.237-.715 3.317-1.813 7.089-4.819 9.047-1.497 17.512 26.888 23.362 38.869 14.677 3.663-2.278 4.619-4.295 4.704-8.439-1.641-2.008-1.929-4.488-2.216-6.969-.155-1.33-.309-2.661-.672-3.918l4.43 8.841c2.657 1.348 5.35 2.619 8.042 3.889 5.284 2.493 10.562 4.984 15.553 8.046 14.253 6.735 16.524 7.909 16.893 23.336 1.322 14.833.282 27.46-.636 38.595-2.442 29.633-4.013 48.692 42.149 70.617 4.251-2.971 7.186.809 6.956 5.023 2.403-1.169 4.817-2.107 7.505-2.591-4.36-1.331-2.658-7.641.043-9.914 8.831-6.707 24.002-5.479 23.258 8.223 2.03.727 1.409 3.92-.616 4.332 13.475 4.691 24.938 13.183 36.291 21.593 2.679 1.985 5.352 3.965 8.045 5.89-2.114-10.89-4.099-21.853-4.748-32.891-.167-.058-.197-.313-.023-.388-.293-1.827.443-2.113.921-.224 33.313-6.005 67.514-6.23 101.292-5.779 18.209.228 36.537 2.653 53.466 9.516.434.224 1.128.484 1.925.781 3.118 1.166 7.825 2.925 4.843 5.53-.603 3.793-1.867 7.48-3.121 11.138-.215.625-.429 1.249-.639 1.873l-1.48 4.117c-8.719 24.246-17.436 48.489-25.491 72.958l-.636 1.909c-1.613 4.843-3.227 9.686-4.743 14.56-.071.23-.141.472-.213.72-.554 1.916-1.219 4.217-3.526 4.235-2.379 1.624-5.031 2.843-7.779 3.727-5.22 29.941-29.486 52.145-51.142 71.96l-.403.369c1.069 1.57 2.086 3.194 2.972 4.879 4.116.363 7.972-1.099 11.788-2.547 1.887-.716 3.764-1.428 5.658-1.914 20.957-6.799 43.681-8.863 65.595-6.691.859.086 1.583.965 1.046 1.795Zm-131.276 291.77c75.94 80.898 212.187 50.649 251.431-50.749 53.968-127.157-74.226-269.344-207.113-207.163l.066.231c.632 2.178 1.263 4.354 1.919 6.523 74.839-38.012 170.027 2.441 199.214 78.837 50.779 119.626-67.558 254.082-194.031 199.924-106.644-45.14-121.372-198.901-27.851-265.142a327.778 327.778 0 0 1-2.1-6.945c-79.196 54.314-89.242 177.356-21.535 244.484ZM709.55 694.964a728.864 728.864 0 0 1-6.463-5.313 14.626 14.626 0 0 1-1.218 4.597c2.562.232 5.122.474 7.681.716Zm-11.362-2.959c-.098.174-.2.345-.308.514l.013.042.015.046c.1-.199.192-.398.28-.602Zm-.638 1.026c-.18.267-.369.532-.572.789l.159.015c.164-.209.316-.429.451-.655l-.038-.149Zm-8.405-2.729c-.013.231.002.307.025.307.041 0 .113-.27.059-.28l-.011-.004a2.804 2.804 0 0 1-.073-.023Zm-2.319-8.487c1 1.214 2.048 2.489 2.416 4.039.236 1.005.156 1.937.054 2.92.498-.392.956-.931 1.419-1.476 1.173-1.381 2.377-2.798 4.341-1.954.352-4.889-5.614-8.347-10-6.812-.044.051-.192.31-.148.401.366.994 1.127 1.919 1.918 2.882Zm-3.714 12.468c0-.196.033-.398.103-.584-1.032.889-2.281 1.449-3.624 1.723.339.107.691.202 1.036.295.371-.788 1.544-1.146 2.426-1.416l.059-.018Zm-3.25-17.854c-.8.253-1.701.539-1.69 1.292.298-.047.042.297-.105.312.638.147 1.269.356 1.88.615.015-.844.321-1.811.731-2.52-.22.112-.511.204-.816.301Zm-6.108 7.821c.298.445.595.89.877 1.346 1.571 2.677-2.45 5.015-4.266 2.468.106.332.239.65.398.945.123-.101.224.088.082.146 1.386 2.388 4.362 3.328 7.102 3.281-.148-1.888.069-1.913.19-.013 7.15-.926 5.946-12.611-5.794-11.106a5.529 5.529 0 0 0-.228.207c.464.971 1.052 1.849 1.639 2.726Zm-70.61-115.882a145.868 145.868 0 0 0-20.334 18.531c17.423 19.741 34.403 39.921 51.374 60.093 6.386 7.59 12.771 15.179 19.179 22.742.719.853 1.451 1.701 2.183 2.55 1.819 2.107 3.644 4.221 5.301 6.44.993.545 1.989 1.084 2.998 1.603-27.136-33.154-47.131-71.651-60.701-111.959Zm-58.727 110.114c-.984 16.148.594 32.6 4.673 48.052 24.6-8.912 49.466-17.13 74.329-25.347 12.001-3.967 24.002-7.933 35.971-11.977-20.358-4.296-41.104-5.242-61.859-6.189-17.778-.811-35.562-1.622-53.114-4.539Zm89.897 20.679c-24.541 8.11-49.083 16.22-73.715 24.062-.866.277-1.734.562-2.604.848-2.926.962-5.875 1.932-8.86 2.622 45.397 159.092 264.956 136.198 280.279-26.845-38.842 1.987-77.855.943-116.527-3.324 20.81 15.92 42.205 31.09 63.587 46.251 8.739 6.196 17.477 12.391 26.171 18.636.539.484-.151 1.242-.744.948-31.387-20.283-61.406-42.867-90.676-66.037a318.577 318.577 0 0 1-9.71-1.338 11.58 11.58 0 0 1-1.957 2.704c12.897 42.405 22.047 86.115 26.548 130.16.046.675-1.082.824-1.203.158-6.3-43.658-14.61-87.026-26.015-129.698-5.591 4.068-13.538 3.472-19.997 2.036 3.925 44.158 7.345 88.42 9.984 132.657-.064.976-1.6 1.293-1.818.242-3.719-44.274-6.306-88.7-8.746-133.073-2.459-.761-5.183-2.438-4.558-5.146-2.258-.698-4.229-2.214-5.386-4.125-1.216 1.797-2.437 3.59-3.658 5.383-2.48 3.643-4.959 7.284-7.401 10.95l1.488-1.182c4.34-3.447 8.684-6.898 13.154-10.164.524-.383 1.142.081 1.258.606-3.006 3.395-6.94 6.228-10.872 9.058-2.785 2.005-5.568 4.009-8.019 6.211-18.926 28.83-35.321 59.268-48.757 90.938-.559 1.323-2.78.758-2.223-.602 12.233-30.35 27.737-59.373 45.994-86.639-8.167 6.221-16.376 12.557-24.599 18.905-16.675 12.871-33.41 25.789-49.975 37.882 19.698-15.731 39.526-31.31 59.37-46.86l8.476-6.626 9.542-7.459c4.481-6.528 9.164-12.921 14.137-19.076a5753.128 5753.128 0 0 0-23.193 14.729c-23.607 15.045-47.26 30.119-71.438 44.029-.61.134-.928-.521-.572-.968 18.473-12.363 37.702-23.901 56.901-35.421 13.435-8.061 26.854-16.113 39.99-24.433-.772-1.615-1.003-3.467-.459-5.365a80.448 80.448 0 0 0-.757-.935c-35.023-19.601-72.788-37.279-109.443-51.775 34.153 11.92 67.181 26.835 98.876 44.091-7.773-9.421-15.592-18.812-23.411-28.205-16.833-20.218-33.668-40.441-50.063-60.966-22.722 24.896-36.313 57.74-38.282 91.273 16.193 2.05 32.579 2.537 48.961 3.023 24.44.727 48.872 1.453 72.646 7.367 1.124.374.649 1.878-.479 1.709a77.069 77.069 0 0 1-3.304-.577c-2.508 1.048-5.112 1.877-7.711 2.703-.944.301-1.887.601-2.825.911-5.802 1.913-11.603 3.83-17.405 5.747Zm164.278-103.472c-30.665 27.046-62.521 53.213-96.203 76.503-2.91.006 1.317-3.044 3.354-4.513.44-.317.777-.561.919-.684 31.355-22.875 61.71-47.032 91.748-71.543-21.222-27.408-52.508-46.951-86.836-52.984l-.269 2.027c-5.228 39.403-10.457 78.819-13.381 118.468 17.596-34.412 37.006-69.466 60.283-99.892-20.461 33.639-40.89 67.341-58.375 102.596-.431.854-.849 1.729-1.27 2.608-.408.854-.819 1.713-1.246 2.563a27.502 27.502 0 0 0-.108 1.514c-.052.975-.104 1.956-.346 2.876 4.343 3.228 6.662 8.79 6.255 14.071a2231.31 2231.31 0 0 1 7.849 5.801l.654.062c4.488.426 8.974.851 13.468 1.228 34.717 2.968 69.638 3.454 104.438 1.852 1.446-21.264-1.558-42.819-8.851-62.606a1732.228 1732.228 0 0 0-117.283 39.791c-1.018.325-1.708-1.265-.731-1.706 38.484-15.04 77.94-27.74 117.95-38.261-5.273-14.323-12.732-27.838-22.019-39.771ZM642.45 547.614c2.274 4.471 4.342 8.989 6.289 13.599.81 1.607 3.351 8.689-.795 6.737-1.428-1.518-2.275-3.531-2.98-5.452-1.734-4.665-3.243-9.378-4.473-14.201a140.012 140.012 0 0 0-14.815 6.253c12.387 42.385 34.125 81.106 57.165 118.584 3.241-1.19 6.984-1.142 10.2.046 2.229-4.073 2.356-6.351 2.578-10.342.027-.485.055-.995.089-1.536 3.385-39.807 7.389-79.714 15.174-118.957a138.329 138.329 0 0 0-7.505-1.089l-.222.949c-.52 2.208-1.057 4.492-1.224 6.755-.036.393-.275.857-.721.93-4.736.28-2.387-6.208-1.436-8.835l.061-.17a140.617 140.617 0 0 0-9.61-.544c-3.143 42.623-4.647 85.322-5.094 128.04-.038.731-1.113.728-1.155 0-.663-42.704 1.472-85.562 5.9-128.05-10.465-.21-20.924.735-31.037 2.83 5.807 38.985 12.459 77.844 19.747 116.573.072.716-1.036.799-1.229.164-8.021-38.546-14.467-77.519-19.12-116.611a137.485 137.485 0 0 0-15.787 4.327Zm-47.281-37.45c.181 4.211.362 8.422 1.156 12.586 10.633 57.686 37.036 112.081 74.266 157.753.008-.002.016-.002.026-.002-.743-3.285 4.794-3.059 6.874-2.591-.695-1.081.928-2.203 2.06-2.985.295-.204.556-.385.735-.536-31.627-39.268-66.307-119.47-68.616-169.446 0-.368.58-.459.659-.088 2.055 9.367 4.44 18.677 7 27.936 21.906-10.186 45.654-15.242 69.902-14.902 1.21-.567 2.35-1.123 3.284-2.019.619-.298 1.172-.425 1.753-.557.218-.05.44-.101.671-.162 1.313-.77 2.759-1.341 4.202-1.912 2.437-.964 4.867-1.925 6.644-3.833-19.624-1.76-39.574-.045-58.585 5.054-6.883 2.33-13.787 4.596-20.8 6.524.251.39.434.843.618 1.296.308.76.615 1.519 1.241 1.982 1.334 1.132.244 3.055-1.177 3.473-2.372.701-3.309-1.656-3.801-3.404-1.101-3.916-2.395-7.831-4.386-11.407-.609-1.104-1.156-2.262-1.703-3.422-1.573-3.333-3.156-6.686-6.276-8.869-1.17.294-2.392.276-3.608.258-.549-.008-1.096-.016-1.637.005-2.491.038-4.965.4-7.429.761-1.194.174-2.386.349-3.577.486.273 2.666.388 5.343.504 8.021Zm-4.187-23.439c.736 2.385 1.471 4.77 2.141 7.174a57.66 57.66 0 0 1 1.27 6.177c3.986-2.648 8.812-3.843 13.565-4.244-2.622-9.738-5.571-19.461-8.517-29.177-3.668-12.093-7.332-24.175-10.358-36.257a2.119 2.119 0 0 1 .013-.405l-.266-.14c-2.647-1.4-4.614-2.44-7.784-1.609-1.896.382-3.486 1.264-3.824 3.199a.573.573 0 0 1-.455.491c3.841 12.494 7.654 25.041 9.919 37.943.876 5.759 2.586 11.301 4.296 16.848Zm-90.88 94.42c10.67-10.794 21.341-21.589 32.095-32.303a5669.47 5669.47 0 0 1 56.056-55.346 426.158 426.158 0 0 0-2.346-7.612c-.44-1.396-.881-2.794-1.313-4.195-19.804 21.45-41.145 41.614-62.487 61.779-30.315 28.644-60.633 57.291-86.549 89.626a2.674 2.674 0 0 1-.316.345c.706-.011 6.595.694 3.518.82.884.22 1.497 1.336.596 1.862l2.19 1.322 2.184 1.319c.292-1.906 2.335-3.765 4.251-5.509 1.026-.933 2.016-1.834 2.682-2.692 16.673-16.272 33.055-32.843 49.439-49.416Zm-39.754 71.154c-.477-.32-.97-.652-1.061-1.224-7.965-4.817-15.926-9.635-23.887-14.458-1.017.22-2.14.258-3.269.297-2.54.086-5.114.174-6.594 2.341.059.361-.075.757-.421.925-.701.76-2.343.496-2.393-.902.107-3.272 5.124-4.972 7.843-5.589a54159.13 54159.13 0 0 0-6.331-3.835c-2.577.572-5.108 1.34-7.586 2.241-.286.104-.592.246-.91.393-.855.396-1.792.83-2.625.649a1.717 1.717 0 0 0-.186.25l.162.07c.169.073.322.139.415.163 1.034.288.775 1.737-.246 1.787-1.59.078-4.16-.35-3.627-2.553 1.38-3.094 7.306-4.396 10.641-5.128l.331-.073a275.86 275.86 0 0 1-1.423-.865c-4.949-3.017-10.409-6.347-16.302-5.816-.88.614-1.949.57-2.942.272-3.83.8-7.293 2.749-10.461 4.955-2.331 1.413-4.404 3.297-6.476 5.18-3.476 3.16-6.95 6.316-11.63 7.239-6.341.855-14.616-5.616-16.094-11.336a2.684 2.684 0 0 1-.42-.096c-1.971 6.35-1.909 12.999-1.726 19.542 11.127.703 22.247 1.588 33.369 2.473 17.041 1.356 34.086 2.712 51.169 3.417 5.259.257 10.518.489 15.779.695 2.475.122 4.899.083 7.225-.79-.103-.076-.213-.149-.324-.224Zm-107.289-4.921a11.2 11.2 0 0 1-.094.568c.708-.127 1.437-.151 2.165-.146-.722-.088-1.435-.209-2.071-.422Zm106.869 18.521c9.862-.368 10.61-7.404 2.566-12.157-.999.601-2.306.668-3.473.729-.324.016-.637.033-.93.059-.468 1.451-5.178 1.062-8.877.756-1.674-.138-3.14-.259-3.913-.185-14.768-.335-29.488-1.609-44.201-2.883-14.913-1.291-29.817-2.581-44.756-2.892-.175-.001-.356-.004-.542-.007-1.537-.026-3.336-.057-4.13 1.135-.023 3.061.716 5.563 4.171 6.007 22.366 5.505 45.227 8.91 68.255 9.856 11.897.457 23.953.582 35.83-.418Zm-17.007 13.699c-.003-.793-.006-1.585.005-2.379.005-.34.036-.746.069-1.176.045-.584.093-1.212.085-1.777-4.089-.418-8.18-.827-12.278-1.13.21.452.315.946.29 1.427.683.627 1.068 1.604.931 2.55.496.779.666 1.738.415 2.591 3.491.076 6.984.043 10.483-.106Zm-89.866 30.174c23.753 10.73 47.335-6.398 64.675-21.169a14.6 14.6 0 0 1 1.71-2.702c-3.177-.241-6.337-.279-9.49-.316-5.636-.067-11.246-.133-16.884-1.367 2.394 2.517-1.161 3.675-3.76 4.521-.698.227-1.328.432-1.754.635a597.298 597.298 0 0 1-16.346 6.16c1.946 17.766-15.152 14.753-19.076 1.045-1.205.296-2.429.39-3.675.335a1.138 1.138 0 0 1-1.078.427c-4.365-.625-8.715-1.378-13.065-2.131-2.179-.377-4.359-.755-6.54-1.116-3.602-.548-7.198-1.163-10.794-1.778-6.621-1.132-13.243-2.265-19.91-2.982.008-.071.016-.144.021-.214-10.8-1.603-21.597-3.273-32.396-4.942-31.635-4.892-63.291-9.787-95.108-13.022-1.516-.147-2.794-1.276-2.562-2.888-.005.005-.011.007-.016.01-.181 1.055-.285 2.15-.391 3.25-.331 3.463-.668 6.98-3.4 9.504 59.663 5.319 119.068 13.978 178.07 24.033 3.435.881 6.603 2.338 9.791 3.803.658.303 1.316.606 1.978.904Zm32.99 29.092c19.891-.957 26.795-16.443 28.422-33.799.137-1.078.253-2.201.371-3.347.275-2.675.564-5.477 1.178-8.138-16.065 13.647-37.321 27.533-59.424 20.633-.468.922-1.459 1.486-2.419 2.034-.424.241-.841.479-1.205.743a3956.245 3956.245 0 0 1-12.219 8.856c1.461 1.357 2.616 3.234.995 4.942-3.203 3.473-8.198 2.787-12.553 2.189l-.271-.037c-2.806.887-6.065 1.134-8.81-.151-1.46 1.214-3.016 2.758-3.055 4.713.218-.199.27-.036.193.173l.254.019c22.776 1.657 45.749 3.328 68.543 1.17Zm-58.408-23.362c-3.462 3.275-6.951 7.316-7.904 12.06-.28 2.365 1.836 2.966 3.772 2.793.327-.451 1.23-.619 1.767-.336 1.174-.345 2.298-.894 3.38-1.431 8.775-4.265 17.079-9.432 24.557-15.643-1.031-.332-2.448-1.017-3.995-1.766-3.31-1.602-7.215-3.492-9.205-2.815a167.239 167.239 0 0 0-3.107 1.963c-2.979 1.911-5.955 3.821-9.265 5.175Zm-272.225 68.3c73.639 77.704 205.975 49.077 244.347-48.851a154.733 154.733 0 0 0 9.439-32.434c-2.873-.451-5.745-.897-8.621-1.341C281.72 813.79 143.095 864.203 61.25 778.314c-76.507-77.217-41.756-221.945 67.229-248.361a26.462 26.462 0 0 1-1.167-4.562c-115.387 26.824-153.95 176.845-71.9 258.411Zm204.584-224.67c-26.794-24.048-62.216-37.861-98.518-37.73-11.268 0-22.345 1.255-33.143 3.748.395 1.532.944 3.009 1.596 4.448 44.466-10.87 93.198 2.725 126.031 34.148l3.052-3.025c.063-.394.339-.741.609-1.08.135-.17.269-.338.373-.509ZM120.789 510.96c2.334-.049 4.533-.096 6.339.089 11.486.412 22.857.202 34.35-.232 24.939 1.364 49.872 1.742 74.828 2.12 9.023.137 18.049.274 27.079.457a1.56 1.56 0 0 1 .374-.388c-10.776-6.269-22.418-12.282-35.158-12.979-26.79-1.11-53.646-.462-80.494.186-14.943.36-29.884.721-44.809.778-.898 1.739-.582 3.854.474 5.535 3.004 4.731 10.531 4.572 17.017 4.434Zm-57.177-13.507c7.117-.765 14.289-1.169 21.452-1.351 47.147-1.1 94.394-2.199 141.533-.708 5.835.514 11.398 1.756 16.833 3.669a65.878 65.878 0 0 1 9.405 3.302c2.607 1.113 5.023 2.556 7.439 4 2.321 1.386 4.643 2.772 7.134 3.868 2.046 1.023 4.1 2.034 6.155 3.045 4.976 2.449 9.956 4.9 14.828 7.529 1.3.701 1.119 2.084.297 2.846.49.829 1.128 1.556 1.763 2.28.168.191.336.382.501.575a83.726 83.726 0 0 1 2.149-1.682c1.127-.862 2.254-1.725 3.312-2.674-.477-.411-1.043-1.007-1.67-1.669-2.249-2.37-5.286-5.571-7.819-4.051a.432.432 0 0 1-.477.025c-37.306-29.918-88.191-30.172-134.457-28.797-24.316.183-48.637.511-72.949.987-1.154.18-3.067.135-5.235.085-5.365-.125-12.3-.287-13.216 2.819 3.019-.063 3.019 2.962 3.02 5.275 0 .216 0 .426.002.627Zm-3.22 17.523c-.31.978-.973 1.64-1.75 1.948a14.949 14.949 0 0 0 2.131-.472c-.135-.488-.261-.98-.382-1.476Zm227.691 12.927c-.793-.981-1.589-1.965-1.858-3.182a3.852 3.852 0 0 1-.053-.884c-5.435-2.528-10.786-5.251-16.131-7.973l-1.914-.974c-.726.435-1.801.704-2.796.954l-.552.139c-.255.464-.733.8-1.438.787-21.108-.399-42.215-.802-63.322-1.217 24.891 6.255 48.029 18.599 67.124 35.657 5.549-5.825 11.449-11.309 17.349-16.794 1.652-1.536 3.305-3.072 4.949-4.615-.365-.669-.861-1.283-1.358-1.898ZM160.31 608.027c-1.726-7.618-3.451-15.233-5.519-22.733-.626-4.242-2.751-8.089-4.882-11.946-1.242-2.247-2.486-4.498-3.435-6.832-1.36-2.754-2.699-5.509-4.036-8.261-3.852-7.928-7.69-15.827-11.981-23.594a127.36 127.36 0 0 0-8.187 2.278c9.561 29.708 18.374 59.675 27.181 89.62 2.383 8.102 4.765 16.201 7.161 24.294l.189-.033c3.322-.576 6.808-1.182 9.483-3.334 1.475-1.187 3.578.779 2.303 2.024-3.135 2.665-7.222 3.449-11.276 4.227-5.013.962-9.974 1.914-13.02 6.401-1.185 1.902-1.621 4.332-.346 6.121 1.695-2.238 4.508-2.877 7.166-3.241 6.265-1.133 10.83-5.825 15.152-10.269.932-.958 1.852-1.904 2.776-2.801 4.933-4.887 9.863-9.779 14.794-14.671l1.623-1.611c-5.698-.515-14.057-17.639-20.138-30.096-2.344-4.801-4.349-8.908-5.733-11.104 1.2 5.245 2.47 10.479 3.74 15.713 2.876 11.849 5.752 23.703 7.814 35.706.068.569.073 1.136.079 1.703.005.492.01.984.055 1.477.012.113-.153.118-.191.026-4.787-12.637-7.78-25.854-10.772-39.064Zm44.778 111.075c-3.125-1.841 2.631-4.587 4.31-2.818.077.056.1.137.084.204 21.374-.027 42.713 1.371 63.966 3.534 2.786.287 5.566.615 8.344.965.893.176 1.822.261 2.754.346 1.801.164 3.611.328 5.184 1.161a146.084 146.084 0 0 0 5.778-22.099c-23.34-3.67-46.749-6.872-70.158-10.074-20.858-2.853-41.717-5.706-62.527-8.891-9.074 9.337-24.576-.399-20.469-12.361-5.043-4.737-.92-12.526 4.414-15.189 2.618-1.48 5.506-2.223 8.44-2.775-2.855-9.626-5.739-19.247-8.623-28.87-8.489-28.319-16.982-56.652-24.75-85.16-99.787 30.818-128.31 165.569-56.85 237.786 69.418 74.194 191.128 43.723 223.791-49.695-2.793-.252-5.587-.506-8.382-.76-22.3-2.029-44.678-4.064-67.093-4.78-.66-.029-1.326-.049-1.994-.069-2.081-.063-4.188-.127-6.219-.455Zm101.944-203.024c-.534.478-1.065.953-1.579 1.434-21.578 20.934-42.829 42.192-64.08 63.452-13.906 13.91-27.811 27.82-41.808 41.639-5.234 4.886-10.229 10.069-15.226 15.255-8.56 8.882-17.127 17.773-26.919 25.19-1.388.779-2.883 1.412-4.429 1.808-.504.109-1.027.198-1.556.289-2.321.398-4.746.814-6.057 2.941-5.312 8.955 5.755 19.099 14.44 12.868-.128.01-.437-.097-.197-.196 2.328-.609 3.85-3.776 4.283-6.006-3.296 1.748-5.277-1.497-6.94-4.222-.432-.707-.842-1.379-1.248-1.919-.795-.053-1.603.097-2.438.251-.298.055-.6.111-.906.159-4.258-.148-1.133-3.908 2.991-2.674 2.03-.274 4.086 1.168 5.719 2.327.405.265.849.467 1.292.668.708.322 1.411.642 1.935 1.212.051-.651.115-1.304.223-1.949-1.803-.509-2.862-2.665-2.198-4.382.249-1.193 1.446-2.178 2.721-2.198-.072.013-.141.023-.21.036.107-.01.741-.108.714-.122.641.058 1.486.248 1.805.822 26.645-24.893 53.75-49.338 80.857-73.783 22.042-19.878 44.085-39.757 65.883-59.879-1.163-5.51-2.317-11.02-3.466-16.53-1.085 1.253-2.352 2.386-3.606 3.509ZM165.54 661.937c.011 0 .017.001.019.002l-.019-.002Zm29.526-21.522a60643.56 60643.56 0 0 1-17.192 15.6c14.784-3.206 30.037-3.964 45.107-4.68-2.613-1.012-5.236-2.009-7.859-3.007-6.723-2.558-13.453-5.119-20.056-7.913Zm-23.91 21.625c4.376-2.153 9.764-3.278 14.122-.602 2.969 1.613 6.786 7.096 3.93 10.174 36.135 4.368 72.129 9.766 108.083 15.371.279-3.226.456-6.47.528-9.736-19.183-6.039-38.217-12.559-57.141-19.352a1326.853 1326.853 0 0 1-11.724-4.317c-2.331.04-4.665.1-6.997.179-8.973.18-17.912.956-26.849 1.732-6.061.526-12.122 1.052-18.191 1.392-.653.588-1.325 1.17-2.001 1.755-1.276 1.104-2.564 2.22-3.76 3.404Zm139.808 27.115c.228-2.598.395-5.209.495-7.833a325.041 325.041 0 0 1-8.548-2.495 156.55 156.55 0 0 1-.542 8.959c2.865.452 5.73.908 8.595 1.369ZM266.86 575.13c23.879 27.681 36.68 64.051 36.118 100.59a401.17 401.17 0 0 0 8.574 2.482c.908-39.263-13.373-78.329-39.87-107.463-1.608 1.465-3.216 2.926-4.822 4.391Zm12.732-11.578c12.729 14.03 22.857 30.03 30.146 47.651 10.38 24.949 14.43 52.575 11.883 79.643l.219.034c8.209 1.285 16.43 2.571 24.579 4.141 1.772.138 3.568-.005 5.257-.573-13.067-53.973-25.728-108.164-36.988-162.58a7735.952 7735.952 0 0 0-35.096 31.684Zm75.056 131.995c.097.395.216.795.35 1.173a69.221 69.221 0 0 1-.35-1.173Zm37.196-20.347c1.999-5.289 7.893-7.53 11.375-2.214 4.675 9.896-13.572 11.48-11.375 2.214Zm-4.736 3.088c-.057-3.179.042-6.52 1.252-9.479-1.344-.039-2.266-1.653-1.588-2.787a334.562 334.562 0 0 1-15.83-2.828c-.469.012-1.248-.207-2.106-.449-2.062-.58-4.58-1.289-4.358.769.073 6.9 1.932 13.486 3.792 20.072 1.047 3.71 2.095 7.42 2.823 11.187a589.45 589.45 0 0 1 15.269-8.176c.708-.279 1.383-.708 2.06-1.138 1.289-.818 2.582-1.639 4.113-1.428-2.011-.756-3.691-2.013-4.55-4.135-.5-.29-.862-.824-.877-1.608Zm-23.923-16.77-.381-.085c.072.119.139.241.206.363.052-.097.111-.189.175-.278Zm-42.629-183.466c-4.398-.468-8.794-.98-13.188-1.501 3.589 18.712 7.873 37.272 12.157 55.832 4.521 19.589 9.042 39.18 12.747 58.949l.566 2.817c6.786 33.77 13.586 67.608 23.602 100.626.15.478.294.961.438 1.447.82 2.764 1.655 5.579 3.815 7.662 2.614 1.977 5.848 2.292 7.403-.809.532-1.854.162-3.702-.214-5.583a84.486 84.486 0 0 1-.171-.875c-1.004-4.829-1.829-9.722-2.655-14.615-1.193-7.067-2.385-14.13-4.11-20.991-11.09-2.112-12.926-3.849-12.249-15.102l.007-.123c.268-4.494.537-9.028 1.409-13.449.562-2.658 1.521-5.267 2.729-7.767.051-1.552.154-3.1.305-4.639-2.513.029-3.136-2.611-3.696-4.979-.213-.9-.416-1.761-.71-2.421l-.382-1.282c-.619-2.079-1.238-4.158-1.847-6.238-12.291-41.509-21.555-83.977-25.956-126.959Zm19.455 80.828c.031-.02.064.02.049.047-.22.427-.646.182-.805-.173 4.476 18.919 8.961 37.851 14.488 56.507 2.749-17.325 10.705-32.886 18.659-48.446 4.863-9.512 9.726-19.024 13.399-28.939a2598.487 2598.487 0 0 0-12.689 5.935c-11.003 5.17-22.038 10.355-33.101 15.069Zm10.56-16.907a2726.18 2726.18 0 0 0-13.038 6.909c-.17.055-.347.063-.518.033a859.487 859.487 0 0 0 2.177 9.577c.03-.623.882-1.045 1.505-1.354.166-.082.316-.157.429-.224 5.245-2.987 10.664-5.662 16.08-8.335l1.794-.887c2.655-1.302 5.307-2.61 7.958-3.917 6.736-3.322 13.47-6.643 20.247-9.875 1.579-4.679 2.789-9.461 3.947-14.262-13.238 7.907-26.922 15.127-40.581 22.335Zm-25.382-59.04c.172 1.346.342 2.678.733 3.988 1.041 15.401 4.335 30.596 7.618 45.746.968 4.466 1.935 8.928 2.844 13.39 3.135-1.834 6.443-3.337 9.754-4.843 3.359-1.527 6.721-3.055 9.908-4.93-6.138 3.036-12.286 6.053-18.508 8.893 10.856-6.065 22.09-11.641 33.319-17.215 6.972-3.461 13.942-6.921 20.819-10.496.464-1.956.928-3.909 1.411-5.86-1.865-.232-3.519-.867-5.117-1.88a473.858 473.858 0 0 1-48.95-31.555c-2.339.698-4.891.9-7.361.857-2.291.45-4.622.747-6.952.864.224 1.019.353 2.034.482 3.041Zm51.644 149.223c6.482-5.241 13.431-10.438 21.514-12.981-.57-3.073-.365-6.324.826-9.219-18.569-.009-30.544 1.676-42.31 17.034.104.304.422.472.702.62.34.18.626.33.405.661 4.45 5.668 12.826 9.534 18.863 3.885ZM274.455 483.481c1.259-3.334 3.355-6.357 6.807-7.785.328-.154.661-.297.995-.433a165.342 165.342 0 0 1-26.793-3.929c.144.608.267 1.227.39 1.848.373 1.883.751 3.787 1.727 5.476 4.457-1.358 7.266.828 9.636 4.311 1.787 2.059 5.691 3.748 7.238.512Zm-30.789-100.436a29.673 29.673 0 0 0-2.765 6.156c-1.392 4.363-1.795 9.015-1.254 13.574 32.639-20.393 72.907-25.501 110.51-18.385 9.448 1.346 19.063 2.047 28.559.756-1.502-8.443-.773-17.118-.054-25.674.145-1.724.29-3.442.415-5.152.391-5.779 1.043-12.02 5.094-16.556-20.837-3.705-41.64-10.379-59.429-21.862-25.106-16.47-29.094-36.63-34.224-62.555-.348-1.76-.702-3.547-1.068-5.361-2.395 19.94-6.58 32.657-12.2 49.738a1506.445 1506.445 0 0 0-3.339 10.232c-3.807 10.787-8.677 20.685-13.509 30.504-6.901 14.026-13.723 27.891-17.254 43.952.321-.116.721.292.518.633Zm102.885-212.223c-27.01-1.913-44.398 1.557-50.75 26.499-8.792 35.862-.304 69.516 16.491 102.279 15.372 21.789 44.099 27.563 69.51 32.67l2.518.507c1.138-.914 4.039.122 6.806 1.109 1.99.711 3.91 1.397 5.054 1.313.051-.056.101-.117.153-.178.106-.128.215-.258.332-.359-.333.291-.332.29-.224.18a4.3 4.3 0 0 0 .406-.457c1.566-2.287 2.699-4.883 3.793-7.412.002-.005.007-.019.013-.028 0-.008.004-.016.01-.025 1.248-2.928 2.365-5.212 3.482-7.495 1.116-2.281 2.232-4.562 3.479-7.487-50.27-10.803-89.486-46.674-75.623-96.926.069-.199.377-.171.379.05.01 1.861-.014 3.721-.037 5.581-.049 3.875-.098 7.749.148 11.627 1.679 36.394 23.756 53.713 58.128 68.453-3.725-22.817-11.934-39.632-19.739-55.619-10.897-22.32-21.006-43.028-17.027-76.209-2.162 1.2-4.714 1.727-7.302 1.927Zm55.197 9.124c-8.515 14.336-32.565 13.186-43.558 2.173a20.174 20.174 0 0 1-2.581-3.314c1.02 29.034 9.905 46.857 19.29 65.681 7.436 14.915 15.184 30.457 19.583 52.701.656-7.446 1.268-14.197 1.836-20.465 3.178-35.047 4.985-54.98 5.43-96.776Zm19.082 5.727c-4.782-3.559-9.906-6.698-15.424-9.047l-.139-.07a93.45 93.45 0 0 1-2.256-1.161c4.384 39.207 2.415 61.999-.234 92.651-.931 10.78-1.947 22.533-2.799 36.314a98.671 98.671 0 0 0 12.521 3.266c2.36.453 2.393 3.674.78 4.786-.151.272-.304-.174-.448-.593-.134-.391-.26-.758-.368-.491.005-.018.018-.045.034-.088-.449 1.057-.86 2.128-1.271 3.198 3.256.721 6.432 1.792 9.602 2.862 3.819 1.288 7.629 2.574 11.559 3.239-2.774-2.232-5.557-4.538-7.787-7.313-.815-1.134-1.516-1.36-2.352-1.631-.609-.197-1.291-.417-2.142-1.03a55.748 55.748 0 0 1-.119 1.921c-.067.887-.105 1.396-.042 3.096.048 1.333-1.929 1.27-2.067 0a730.634 730.634 0 0 0-.685-4.271c-1.222-7.527-2.228-13.719-2.125-21.974.007-3.31.005-6.462.003-9.487-.016-28.114-.025-45.186 7.19-75.266.061-.154.261-.121.282.037.27 2.073.185 4.156.1 6.239-.016.387-.032.774-.046 1.161-.474 7.396-.963 13.896-1.415 19.905-1.549 20.615-2.665 35.455-1.289 60.886.244 1.588.205 3.494.164 5.469-.086 4.232-.179 8.779 2.489 11.184 3.492 3.832 7.69 5.707 12.112 7.683 2.24 1.001 4.536 2.027 6.829 3.346.665.515 1.459.356 2.251.198.297-.06.593-.119.883-.143 1.89-.325 3.734-.524 5.624-.073 4.577 1.106 7.745 4.909 10.421 8.468 3.517-2.067 7.559-2.613 11.607-3.16 2.936-.397 5.875-.794 8.619-1.772a10.477 10.477 0 0 1-.572-1.825c-49.88-25.006-48.933-40.31-44.953-88.901.06-2.877.129-5.418.192-7.746.278-10.31.444-16.446-.774-29.135-.919-4.56-4.493-6.1-8.288-7.734-1.94-.836-3.937-1.697-5.667-2.998Zm63.458 137.023c.696 1.466 1.545 3.254-.476 4.005-4.155 1.523-8.533 1.977-12.917 2.431-3.039.315-6.081.63-9.054 1.302.261.353.691.782 1.163 1.252 1.588 1.582 3.643 3.628 1.238 4.826.118.255.231.514.341.779 5.019-.636 10.059-1.151 15.099-1.667 3.346-.343 6.692-.685 10.031-1.062-2.803-3.949-4.289-8.672-4.473-13.471-.174.56-.588 1.071-1.059 1.379l.107.226Zm69.793 25.461c-16.867-12.606-35.226-26.327-57.466-25.413-2.446-.038-4.998-.04-7.45.232.294 3.067 1.42 6.056 3.039 8.69 20.041-3.264 37.747 8.173 51.052 21.726 6.293 4.707 14.552 5.301 22.178 5.524-.308-1.602-.62-3.208-.933-4.816-2.525.176-4.445-1.381-6.343-2.92-.827-.671-1.65-1.338-2.516-1.857l-1.561-1.166Zm-40.615-34.636c-1.969-4.261-8.798-2.177-12.16-.739-.728.419-1.313.882-1.741 1.505.984.332 1.669 1.333 1.659 2.311 4.19.657 8.456.983 12.701.902.138-1.271.099-2.357-.259-3.422.002.007-.216-.557-.2-.557Zm27.957 43.604a1.384 1.384 0 0 1-.102.1 80.722 80.722 0 0 0-1.928 1.79c-.463.44-.928.881-1.4 1.315 2.864.624 5.832.306 8.742-.005l.577-.062c-2.088-.815-4.062-1.848-5.889-3.138Zm-118.867-5.613c.48-.181.965-.413 1.455-.673l-.652-.55c-1.476-1.249-2.95-2.496-4.475-3.679-.119 2.012 1.697 3.421 3.173 4.566l.199.155c.098.063.198.123.3.181ZM458 331.23c-2.786-3.772-5.65-7.648-10.665-7.747.147.076.291.156.433.239-2.651-.912-5.355-.545-8.045-.179-1.633.222-3.261.444-4.868.378-4.753-.386-9.082-2.041-13.409-3.696-3.622-1.386-7.243-2.77-11.11-3.409a472.329 472.329 0 0 0-1.371 3.741c-2.031 5.587-4.071 11.201-7.047 16.348 9.648-1.534 18.071 5.414 25.07 11.187l.845.696c.087-.038.174-.075.262-.111.738.83 1.719 1.328 2.679 1.815.159.08.317.161.473.242.011.561.584.752 1.124.932.245.081.483.161.659.271-.038.064-.075.13-.116.193 1.879.528 3.65-.103 5.494-.761l.297-.106c2.918-1.117 5.892-2.125 8.866-3.133 4.569-1.548 9.139-3.097 13.506-5.04 1.484-1.196.873-2.747.291-4.224-.519-1.315-1.014-2.571.015-3.465-1.2-1.216-2.286-2.685-3.383-4.171Zm-56.798 6.734c-1.19 1.595-2.729 2.82-4.965 2.918a8.608 8.608 0 0 1-1.652-.096c-.113 2.357-.263 4.722-.412 7.093-.617 9.788-1.24 19.657.625 29.311 7.379 1.603 14.861 2.768 22.401 3.304.31-8.891-.068-17.796-.754-26.661-2.171-2.609-3.724-6.962.174-8.898-4.606-3.346-9.953-5.429-15.417-6.971Zm-16.709 23.013c-.283 5.499-.567 11.002-.295 16.508-.052.844.093 1.87.245 2.94.363 2.56.762 5.375-1.423 6.571-.352 1.843-5.51 2.303-8.703 2.587-.821.073-1.512.135-1.958.205 7.995.698 15.696 2.857 23.393 5.014 3.457.969 6.913 1.938 10.395 2.774-3.915-3.747-7.674-8.788-6.773-14.438-8.311-1.121-10.316-2.018-10.311-10.709-.525-10.671-.057-21.953 4.122-31.927a396.41 396.41 0 0 0-5.874-1.626c-2.209 4.642-2.359 9.824-2.506 14.889-.025.83-.049 1.657-.082 2.477-.068 1.578-.149 3.156-.23 4.735ZM558.11 423.68c-3.626-20.624-1.523-30.907 10.533-48.093-.811-4.188-1.618-8.374-2.419-12.565-2.899.253-5.925-.125-8.893-.495-1.316-.164-2.621-.327-3.899-.433-1.507.11-3.037.312-4.577.514-4.426.582-8.926 1.174-13.139-.35-5.006 4.858-33.889-3.886-41.114-6.157a353.941 353.941 0 0 0-5.677-1.812c-8.004-2.504-16.022-5.013-22.985-9.834-1.377-.886-.09-3.067 1.294-2.176a70.59 70.59 0 0 0 9.648 5.214c13.041 4.838 26.665 7.669 40.275 10.497 3.231.672 6.461 1.343 9.683 2.041.724.059 1.491.268 2.266.48 1.734.474 3.506.958 4.923-.206 1.246-1.067 2.466-2.163 3.687-3.259.558-.5 1.115-1.001 1.675-1.499-12.178-13.179-28.163-21.401-46.402-22.578 2.771 4.681-2.705 5.609-6.289 5.635-3.293.365-6.58.773-9.866 1.181-3.759.467-7.518.934-11.286 1.337.378 4.165-3.774 6.125-7.217 7.149l-17.115 6.328c-3.776 1.673-8.216 2.792-11.903.3-.356.184-.716.38-1.082.579-2.282 1.24-4.751 2.582-7.354 1.763.642 8.485.638 16.994.5 25.496-.013 1.124-.975 2.125-2.142 2.104-6.251-.108-12.504-.571-18.684-1.522 1.697 3.56 4.642 6.217 7.534 8.826.871.786 1.738 1.568 2.564 2.369.523.535 1.12 1.033 1.722 1.535 1.351 1.126 2.722 2.268 3.307 3.881 23.231 5.854 46.4 14.084 66.353 27.366 9.037 6.149 5.796 16.476 2.002 24.705a1612.772 1612.772 0 0 1-11.886 29.025c22.207-13.069 44.902-25.329 67.59-37.584 7.88-4.257 15.758-8.512 23.615-12.802-3.273-.632-4.819-4.006-5.242-6.96Zm-94.995 78.959.238-.127c-.166.046-.334.09-.498.139a2.715 2.715 0 0 1-.041.095l-.031.072c.11-.061.221-.12.332-.179Zm109.57-62.231c-.169-.97-.338-1.941-.534-2.91-.429-2.093-.825-4.42-.2-6.525-2.175-.482-4.327-.756-6.543-.224-13.873 9.604-28.759 17.679-43.624 25.743-5.152 2.794-10.301 5.588-15.405 8.443a4699.831 4699.831 0 0 1-6.627 3.69c-9.628 5.352-19.259 10.706-28.694 16.383-2.15 2.822-3.513 6.367-4.875 9.91-.901 2.345-1.802 4.689-2.931 6.821l.979-.387c7.402-2.932 14.876-5.892 21.651-10.066.756-.156 2.651-1.317 4.692-2.569 3.12-1.912 6.584-4.035 6.863-3.109 17.878-8.803 35.478-18.13 52.923-27.732 3.64-1.996 7.269-4.007 10.888-6.039.939-.405 2.321-1.272 3.847-2.23 3.15-1.978 6.918-4.343 8.695-3.838-.48-1.774-.793-3.566-1.105-5.361ZM432.754 635.166l.207-.025-.143-.087a20.25 20.25 0 0 0-.723.192c.22-.028.439-.054.659-.08Zm-.992-3.63c.046-.186.128-.363.248-.524 35.711-43.34 77.447-81.463 119.043-119.459 11.151-10.185 22.292-20.362 33.304-30.627-.59-1.791-1.187-3.581-1.784-5.37-3.003-9.001-6.007-18.005-8.144-27.246-30.343 18.746-62.816 34.493-95.339 49.352 9.442 8.518 4.951 21.944-.834 31.222-5.367 9.614-10.793 19.196-16.219 28.777-2.627 4.641-5.255 9.281-7.877 13.926-6.599 10.942-12.503 22.24-18.407 33.54-2.463 4.713-4.925 9.426-7.439 14.114-.299.45-.598.963-.91 1.497-1.324 2.271-2.871 4.923-5.614 4.745 2.186 1.824 4.731 2.116 7.487 1.556 1.092-.125 1.296 1.633.256 1.861-.533.117-1.067.223-1.601.325l3.83 2.311Zm143.376-222.552c-.35-1.794-.7-3.589-1.048-5.382l-1.466-7.529c-1.157-5.937-2.314-11.874-3.464-17.812a289.099 289.099 0 0 1-1.673 3.341c-3.554 7.031-7.12 14.084-7.037 22.161-.159 5.552.552 11.119 1.339 16.605.044.308.082.645.122.998.183 1.638.407 3.633 1.491 4.749 1.021.732 2.266.505 3.539.272 1.025-.188 2.067-.378 3.025-.074.277.048.576.138.883.23.759.228 1.569.472 2.243.126 1.734-1.293 2.367-3.381 2.987-5.429.278-.917.553-1.827.924-2.653-.618-3.201-1.242-6.402-1.865-9.603Zm3.844 17.622a5.402 5.402 0 0 1-.23-.376c-.106.219-.219.434-.337.646a8.995 8.995 0 0 1 .567-.27Zm11.143 5.534a22.183 22.183 0 0 1-.041-.253 2.36 2.36 0 0 1-.232-.14l.363.911a22.408 22.408 0 0 1-.09-.518Zm81.692 9.572c-23.691 4.362-48.834-.518-71.592-7.412-2.838-.937-5.653-1.96-8.411-3.114 3.151 12.218 6.9 24.287 10.649 36.359 2.949 9.494 5.898 18.99 8.558 28.562 1.478.664 1.721 2.896.676 4.01 3.236.826 5.044 3.97 6.733 6.906.538.937 1.065 1.853 1.622 2.665 21.42-19.175 42.022-40.598 51.765-67.976Zm6.617-113.68c.312-.926-1.173-1.323-1.485-.402-6.827 22.431-12.613 45.245-17.634 68.131-.956 3.154 1.585 2.987 1.363 1.388 4.756-23.264 11.067-46.314 17.756-69.117ZM53.461 515.606a4.38 4.38 0 0 0 2.087 1.214c.323.084.652.137.985.167-.748-.221-1.464-.79-1.923-1.513a3.465 3.465 0 0 1-1.15.132Zm-3.852-14.408c.033-.504.08-1.008.136-1.51.024-.209.045-.433.067-.667.101-1.068.22-2.327.694-3.219-.602.232-1.203.472-1.805.718.367 1.545.649 3.11.908 4.678Z" clip-rule="evenodd"></path><path fill="#fff" fill-rule="evenodd" d="M429.135 101.492c2.853-2.047-1.401-8.779-2.846-10.782l-3.773-7.84c.153-2.143-1.942-4.05-4.013-3.398-1.802-1.29-4.82-.673-5.736 1.348-19.922-8.665-54.392-5.06-56.175 21.675-3.854 7.613-7.673 15.29-11.092 23.108-4.744.254-7.044 6.009-4.219 9.728.376 6.039 4.21 6.517 9.329 6.249 2.056.54 4.187.833 5.728 2.419 1.172 1.195 1.968 2.712 2.737 4.183 3.547 6.787 8.053 12.658 14.162 17.354 9.499 7.099 22.359 12.196 34.204 8.74 25.466-9.987 30.468-49.897 21.694-72.784Z" clip-rule="evenodd"></path><path fill="#000" fill-rule="evenodd" d="M375.988 62.598c16.638-3.858 35.33 1.32 46.877 14.078.813.896.725 2.063.01 2.82.334.27.66.548.991.826.346.293.296.881 0 1.179-.294.293-.903.353-1.181 0l-.412-.518a28.343 28.343 0 0 1-.604-.784c-.238.088-.471.18-.705.27 3.529 2.342 6.47 5.452 8.486 9.195 2.182 4.049 3.573 8.37 4.479 12.868 1.613 8.022 1.847 16.25 1.632 24.408l-.012.437c-.279 9.833-1.239 19.829-5.392 28.871-3.33 7.246-9.248 13.91-16.668 17.082a29.072 29.072 0 0 1-13.508 2.279 42.775 42.775 0 0 1-7.27-1.145l-.572-.142c-2.17-.542-4.421-1.171-6.273-2.412-1.901-1.274-.62-3.806 1.477-3.498 2.525.373 4.93 1.425 7.435 1.971 2.45.536 4.93.816 7.44.744 4.441-.126 8.485-1.488 12.157-3.962 14.034-9.462 15.74-28.488 16.106-43.862.178-7.512-.098-15.122-1.828-22.461-1.663-7.056-4.524-14.005-8.574-20.032-.892.333-1.785.61-2.735.698-1.695 1.017-3.709 1.044-5.668 1.045h-.273c-2.039-.003-4.077-.123-6.106-.306-7.179-.636-14.567-2.248-21.783-1.222l-.295.043c-2.972.447-6.654 1.383-8.836 3.518-2.357 2.304-.777 6.663 1.089 8.048 1.206.896 1.582 2.914 0 3.728-3.125 1.61-10.688.716-11.538 1.608-1.02 1.065-.949 2.689-.978 4.072l-.002.092c-.105 3.936-.008 7.86.326 11.786.321 3.796 1.051 7.6 1.214 11.406.055 1.254-1.462 1.635-2.292.946a7.194 7.194 0 0 0-.499-.378c-1.507-1.066-3.22-1.517-5.058-1.803a.363.363 0 0 1-.226-.127l-.022-.028-.196.16c.381.474.707 1.01.965 1.611.053.12-.06.273-.193.192-2.542-1.51-5.311-2.151-8.237-1.54-2.633.549-5.015 2.216-5.788 4.886-.709 2.456-.188 5.288 1.405 7.309 2.354 2.995 6.178 2.724 9.609 2.862.672.028 1.421.353 1.735.994.369.756.343 1.272 0 2.026-.048.107-.11.205-.183.293.29.24.565.502.833.77l.896.901a71.136 71.136 0 0 1 1.809 1.879c1.725 1.878 3.348 3.877 4.875 5.917l.141.191c1.789 2.443 3.644 5.972 6.745 6.743 1.063.265 2.051.789 2.367 1.938.316 1.149-.429 2.264-1.429 2.744-1.736.834-3.937-.157-5.369-1.209-3.088-2.271-5.105-5.977-7.002-9.239l-.519-.891c-.977-1.683-1.931-3.386-2.745-5.154-.464-1.01-.963-2.011-1.395-3.035-.125-.298-.25-.601-.348-.912-.138.03-.278.05-.411.058-4.14.27-8.907-.386-11.899-3.523-4.125-4.325-4.609-12.057.078-16.184a9.076 9.076 0 0 1 1.652-1.146c-.837-1.415-1.391-3.055-1.8-4.595-.597-2.249-.93-4.54-1.096-6.859-.333-4.73.221-9.545 1.359-14.14 4.128-16.654 16.801-30.458 33.732-34.385Zm-29.983 69.108c-.819-4.745 8.689-1.236 10.762-.905l.061.009c2.378.329 1.052 4.495-1.288 3.254l-.071-.039c-1.267-.725-2.659-1.244-3.987-1.858l-.284-.133c-1.056-.506-4.544-2.777-4.922-.328-.02.135-.248.133-.271 0Z" clip-rule="evenodd"></path><path fill="#000" fill-rule="evenodd" d="M399.015 140.798c1.403-2.304 4.393 3.34 4.711 4.311.281.86.467 1.74.561 2.631a8.175 8.175 0 0 0 3.331.031c1.657-.317 2.669-1.207 4.108-1.97.995-.528 2.248.091 2.765.966.608 1.03.22 2.099-.58 2.866-1.516 1.456-4.501 1.79-6.481 1.404a8.38 8.38 0 0 1-3.092-1.264c-.006.115-.01.231-.019.346l-.018.199c-.152 1.615-.596 3.645-1.852 4.696-2.06 1.723-4.602-1.591-2.601-3.313l.062-.051c1.244-1.004 1.516-3.697 1.449-5.18a10.72 10.72 0 0 0-.527-2.871l-.063-.184c-.092-.26-1.097-2.731-1.46-2.416l-.017.017c-.15.179-.392-.029-.277-.218Zm11.201-13.002c1.893 1.149 4.778 3.829 2.741 6.679-2.398 2.512-5.85-.368-7.551-1.671-1.578-1.01-3.35 1.587-1.886 2.766 12.293 9.088 17.282-7.473 7.653-9.125-1.06-.182-1.454.995-.957 1.351Zm-20.22-10.624c1.85-.328 3.746.132 5.277 1.213l.116.084c1.476 1.077 3.126 2.969 2.28 4.826-.34.746-1.358.863-2.003.525-1.075-.563-1.27-1.948-2.229-2.715-.787-.628-1.846-1.009-2.859-.917-2.38.216-3.844 2.56-4.583 4.58-.095.258-.475.358-.623.081-1.743-3.253 1.342-7.095 4.624-7.677Zm29.642-1.227c3.545-.292 7.694 3.378 6.761 7.114-.448 1.793-3.111 1.742-3.585 0-.26-.958-.234-1.806-.925-2.602-.57-.657-1.38-1.038-2.251-.98-.96.065-1.846.544-2.518 1.217-.608.608-.971 1.498-1.601 2.036-.155.132-.362.141-.515 0-1.083-.997-.433-3.074.254-4.115.983-1.49 2.583-2.522 4.38-2.67Zm-36.393-5.4c2.274-2.01 6.406-3.951 9.473-2.962 1.763.569 2.531 3.406.563 4.305-2.279 1.041-4.907.617-7.226 1.696-.975.454-1.891 1.021-2.569 1.852-.535.655-1.078 1.517-1.851 1.894-.203.1-.478.102-.641-.082-1.694-1.914.772-5.395 2.251-6.703Zm32.484-3.062c1.406-.394 2.965-.386 4.393-.138 1.427.247 2.876.838 4.041 1.7l.136.1c1.272.958 2.79 2.35 2.709 4.046-.068 1.416-1.56 2.374-2.848 1.632-1.05-.605-1.544-1.818-2.433-2.625a8.372 8.372 0 0 0-2.514-1.56 8.672 8.672 0 0 0-3.14-.619c-.844-.014-1.693.263-2.521.351.069.14-.586.075-.961-.049-.278-.118-.279-.469-.183-.697.478-1.127 2.216-1.831 3.321-2.141Z" clip-rule="evenodd"></path></svg>