<svg xmlns="http://www.w3.org/2000/svg" width="391" height="780" fill="none" id="girl-with-short-hair"><path fill="#fff" fill-rule="evenodd" d="M84.564 364.502c.04 2.723.314 8.978.998 11.614-7.628-12.206-19.058-25.546-20.796-40.496.542-.148 2.946-.37 3.365-.684 3.947 1.83 3.2-3.803 3.783-6.408 1.576-5.516 4.885-10.942 6.323-16.495 3.78-1.631-3.81-2.322-4.914-2.355 4.585-5.095 6.694-12.1 9.958-18.045 4.796-10.102 9.092-20.429 12.927-30.918a97.36 97.36 0 0 1 .478 19.824c-1.577 28.307-12.229 55.524-12.122 83.963Zm264.741-50.283c-2.373.398-6.327.775-8.696.969 3.109-1.85 12.297-5.375 6.507-8.543-1.786-.65-3.701.278-5.502.565-7.476 1.229-16.708 1.164-24.271.545 2.757-2.259 6.387-5.513 9.078-7.851 1.43-1.242 2.816-1.713 1.208-3.568-2.835-2.637-7.906-.695-11.184.463-9.043 5.058-19.253 10.544-28.959 14.436-.102-1.358-.039-3.113-1.35-4.025-3.846-1.809-6.677-1.28-10.769-1.762-4.77-.714-9.009-1.525-13.732-2.785-3.09-2.352-4.973-9.289-9.913-8.513 4.375-10.992-2.294-22.46-4.799-32.985-3.126-10.771-4.769-21.958-4.813-33.157-.031-17.932-10.434-31.69-25.466-40.891-5.926-3.995-9.906-13.713-17.243-15.659-.933-3.574-.989-5.144-1.809-8.746-.411-1.034-.717-6.648-1.751-6.457-1.141-5.561-6.955-7.791-11.985-8.955-6.541-1.353-15.669-2.993-21.549.826-1.703 1.415-2.451 3.784-2.576 5.9-.654 2.818-2.013 5.737-3.597 8.182-2.703-.912-1.173-2.611-3.847-3.007-24.415-3.612-51.515 14.269-67.356 31.713-28.713 29.437-51.652 69.623-47.897 111.577-1.01-.148-5.485-.849-5.42.563.218 6.14 1.35 11.261 1.662 17.395-.31 8.128 8.147 9.107 14.257 11.111-.376 23.58 8.204 47.165 21.634 66.548 3.263 3.814 8.159 17.049 14.114 11.777.702-.82-4.74-6.497-5.71-7.899-3.305-4.156-12.064-24.731-5.874-28.841 1.376 4.442 14.7 25.799 17.076 13.677 3.155 1.828 8.368 3.075 12.139 2.886 7.089 3.834 13.988 7.975 20.796 12.278 3.172 6.218 7.823 12.19 11.72 18.16-26.97 62.196-53.295 164.565-88.003 223.146-3.026 3.826 13.622 10.328 16.562 11.732-5.623 9.116-6.327 19.679-10.605 29.495-.815-.132-1.637.041-2.372.434-5.277 3.568-7.269 16.341-7.57 22.639.244 2.809-.8 7.058 1.477 9.127a3.825 3.825 0 0 0-.724 1.192c-1.602 1.246-1.405 3.997-.549 5.703 3.014 6.244 25.04 5.665 32.187 7 25.319 2.142 46.569 2.479 71.885.138 3.107-.649.757-5.489-.777-6.802.708-.43 1.162-1.216.851-2.226-5.755-16.432-26.555-15.32-39.142-24.095 3.31-1.911 1.174-1.302-.905-.558a51.708 51.708 0 0 1-6.343-4.664c1.528-.942.774-1.564-.878-.775-2.604-2.085-4.632-5.308-7.95-6.319-3.249-.794-3.249-2.182-3.249-3.056 1.934-7.763 4.046-15.723 5.132-23.596 1.158 1.705 11.15-11.958 13.288-15.369 8.307-13.135 8.284-26.078 14.097-40.362 11.938-31.107 36.391-96.302 51.303-126.052 34.892 56.765 17.897 133.537 39.422 194.068.956 1.818 2.755 8.638 5.246 6.671.969.226 1.998.348 2.92.478-.266 6.617-.762 13.217-1.864 19.764-1.025.271-1.897.809-2.349 1.749-1.727-1.267-5.035 17.418-5.318 19.321-.004 2.455-2.124 7.922-.188 9.381-2.79 1.14-3.246 5.352-1.284 7.518 5.826 7.816 34.221 5.668 44.697 6.979 13.247-.329 68.665 4.623 72.513-7.923.765-2.864-.546-6.48-3.213-7.582 1.067-2.488-1.489-4.889-3.053-6.635-9.22-9.575-23.397-11.083-35.673-15.25.458-.468-16.024-8.9-19.597-10.984.236-2.831-5.657.008-5.673 0-2.81-4.957-4.8-12.671-6.684-18.019 3.477-1.076 11.854-2.032 13.406-5.468 4.99-1.671-.015-8.896-1.049-12.285-29.25-73.065-1.499-165.227-44.671-234.189 7.914-4.525 16.992-14.427 9.176-22.734-1.565-1.997-5.391-8.214-5.328-7.129-1.454-5.919-4.7-16.116-5.712-22.101-3.713-21.977-1.279-42.559 1.864-64.753 4.365 16.7 19.408 30.614 34.711 38.244 5.972 2.461 13.858 7.539 20.415 5.937 5.918-1.748 16.665-13.877 17.932-19.702 17.251 2.048 35.163.404 51.649-5.01 2.117-.799 4.621-.731 3.967-3.73-.653-2.545-5.306-1.896-7.307-1.423 3.058-1.693 10.998-2.136 10.937-6.561-.103-.923-.785-1.45-1.73-1.291Z" clip-rule="evenodd"></path><path fill="#000" fill-rule="evenodd" d="M159.791 150.501c.263.106.442.505.548 1.103.292.091.542.307.617.631.222.954-.037 1.949-.236 2.9l-.023.11a27.65 27.65 0 0 1-.702 2.733l-.041.227c-.687 3.709-2.011 7.235-3.565 6.636l.359.653c6.1 11.054 23.526 40.735 37.131 36.504 7.923-3.17 7.809-13.476 7.23-20.649-5.883 3.603-6.983-23.975-5.777-27.022.96-.706 1.423 5.638 1.78 6.513.78 3.48 1.736 6.915 2.633 10.365a14.276 14.276 0 0 1 5.277 2.212c.076.044.154.083.228.128.951.578 1.694 1.316 2.356 2.133.749.836 1.389 1.751 1.993 2.692 1.329 1.507 2.595 3.07 3.904 4.593a55.695 55.695 0 0 0 1.907 2.107l.501.42.252.209c15.03 9.369 25.436 23.389 25.465 41.649.045 11.408 1.687 22.802 4.813 33.774 2.505 10.721 10.598 21.678 6.223 32.874 4.94-.79 5.399 5.551 8.489 7.947l.97.263c4.34 1.166 8.321 2.138 12.761 2.815 4.092.491 8.823-.048 12.669 1.795 1.311.929.842 2.605.944 3.987 9.705-3.964 18.421-9.44 27.464-14.591l.303-.109c3.347-1.186 9.318-2.968 12.068-.364 1.608 1.89-.016 3.577-1.446 4.842-2.69 2.381-5.545 4.565-8.301 6.867 7.428.619 14.88.125 22.226-1.078l.401-.066c1.8-.293 3.922-.993 5.708-.33 5.789 3.227-.91 6.993-4.018 8.878a83.607 83.607 0 0 0 7.106-.897c.944-.161 1.626.375 1.73 1.315.06 4.507-5.887 4.75-8.945 6.474l.245-.058c2-.462 4.874-.868 5.501 1.62.654 3.055-3.47 4.289-5.586 5.103-16.486 5.515-34.397 7.189-51.647 5.103-1.266 5.933-12.014 18.287-17.932 20.068-6.556 1.632-14.442-3.541-20.414-6.047-15.303-7.772-29.481-20.593-33.845-37.603-3.668 26.375-2.186 52.966 3.32 78.916.891 2.023 1.832 4.015 2.89 5.956.32.051.59.265.652.696.033.237.081.467.135.694 1.053 1.787 2.208 3.504 3.28 5.281.221.366.44.748.64 1.138 7.137 8.404-1.562 19.234-9.341 23.765 43.169 70.244 15.287 158.765 44.536 233.188l.065.212c1.11 3.539 4.491 10.825-.399 12.493-1.553 3.501-9.376 3.914-12.852 5.01 1.883 5.447 3.978 10.835 6.787 15.885l.051.022c1.119-.822 3.519-1.67 4.51-.775.242.03.482.098.717.214 1.535.762 2.769 2.218 4.237 3.135.794.496 1.62.946 2.47 1.339.791.366 1.631.607 2.277 1.211.204.19.255.432.205.655.51.264 1.019.529 1.526.795l.276-.172c4.486-2.791 8.094-4.303 1.568 1.059 2.338 1.079 4.736 2.024 7.15 2.908 1.833-.88 3.789-1.522 5.807-1.611.362.448-2.411 2.179-2.868 2.656 12.275 4.244 25.777 7.568 34.996 17.321l.207.233c1.57 1.755 3.866 4.1 2.846 6.524 2.666 1.123 3.978 4.806 3.212 7.723-3.847 12.78-62.826 7.736-76.072 8.07-10.475-1.335-38.87.854-44.695-7.109-1.962-2.206-1.506-6.496 1.284-7.657-1.937-1.486.183-7.054.188-9.555l.044-.289c.297-1.867 1.582-9.174 2.916-14.281.028-.402.081-.814.146-1.229l.042-.264c.265-1.627.672-3.283 1.725-4.592.756-.94 1.804-1.52 2.941-1.73.304-1.944.554-3.893.769-5.844.151-2.296.209-4.595.183-6.895a91.915 91.915 0 0 0-.101-3.482c-.042-.854.007-1.868-.21-2.741a.541.541 0 0 1-.581.149c-.49-.168-.941-.477-1.391-.73-.017-.01-.03-.021-.045-.031-2.402 1.557-4.14-5.107-5.074-6.916-21.523-61.656-4.529-132.612-39.42-190.431-4.817 10.323-8.956 19.793-13.592 30.188-14.48 32.464-32.354 89.648-44.342 124.022-3.261 7.027-7.095 13.819-11.652 20.093-1.456 1.65-2.434 4.077-4.543 4.963l-.184.028c-.563 1.051-1.344 1.935-2.506 1.906a6.23 6.23 0 0 1-.87-.09c-1.03 7.153-2.324 14.351-4.045 21.389l.232-.097c1.127-.465 2.311-.861 3.468-.757 2.806.709 1.767 3.159-.451 3.968 2.76.856 4.63 3.272 6.68 5.283 1.732-.932 3.674-1.416 5.75-1.212.318.031.56.169.728.36.119.001.235.007.345.025l-.226.137c.368.619.105 1.561-.847 1.566-.748.004-1.468.072-2.164.201-.483.282-.964.567-1.438.865a50.598 50.598 0 0 0 5.057 3.902 18.67 18.67 0 0 1 2.925-1.187c1.316-.41 1.89 1.678.569 2.057-.281.08-.559.17-.835.265l-.271.164-.198.118c12.586 8.938 33.861 7.805 39.616 24.543.191.631.092 1.176-.175 1.605 1.247 1.142 1.823 3.197 1.542 4.773l.024.132c.214 1.276-.094 2.395-1.466 2.686-9.153.852-18.284 1.393-27.477 1.56l-.742.006c-13.171.088-77.234-.39-80.123-8.837-.771-1.564-1.009-3.99.12-5.385.13-.75.388-1.433.846-1.968-1.856-1.872-.943-6.59-1.17-8.967.407-7.933 2.019-16.44 6.874-22.933a.558.558 0 0 1 .274-.196 4.91 4.91 0 0 1 3.236-1.461l.119-.297c.99-2.332 1.93-4.707 2.865-7.094a661.298 661.298 0 0 1 2.142-8.106 723.592 723.592 0 0 0 2.125-8.074c.552-2.149 1.027-4.57 1.982-6.624-.026-.088-.05-.175-.08-.263l-.993-.401c-6.51-2.643-16.826-7.101-14.56-10.045 24.153-50.125 47.795-121.485 69.959-173.45a60.387 60.387 0 0 1 1.114-3.036 746.41 746.41 0 0 1 2.976-7.315l.606-1.458 9.656-23.205c1.01-2.429 2.15-4.845 2.946-7.355.768-2.417.974-4.823-.484-7.022-1.305-1.969-3.144-3.598-4.615-5.447a46.868 46.868 0 0 1-3.168-4.462c-.883-1.162-1.62-2.492-2.278-3.564-1.055-1.718-2.396-3.62-3.162-5.605-.987-.621-1.976-1.24-2.969-1.852a79.395 79.395 0 0 1-5.043-3.052 306.62 306.62 0 0 0-6.264-3.624c-.76-.377-1.519-.752-2.28-1.125-2.279.197-8.575-2.609-10.72-4.507a16.55 16.55 0 0 1-.73-.165c-.098 1.212-.495 2.31-1.418 3.124-6.146 3.046-13.979-10.749-16.138-15.352-4.29 4.186 5.947 24.892 9.253 29.124l.176.263c.885 1.323 1.812 2.809 3.067 3.787l.126.096c.86.636 1.02 1.628.318 2.463-5.955 5.37-12.207-6.421-15.47-10.306-13.429-19.743-22.01-43.767-21.633-67.785-6.11-2.041-14.567-3.038-14.257-11.317-.312-6.249-1.443-12.43-1.663-18.684-.064-1.438 4.412-.725 5.422-.573-1.488-14.369.76-28.957 4.77-42.766 10.526-35.335 53.874-99.021 96.539-101.32-.038-.07-.02-.163.076-.188 1.931-.501 4.065-.421 6.049-.358 2.066.066 4.165.08 6.22.313 2.129.241 4.384 1.023 5.814 2.57l.496-.893c.575-1.043 1.129-2.096 1.547-3.246.212-.581.379-1.183.53-1.792.171-.869.214-1.773.626-2.561.011-.021.024-.038.036-.057.148-.497.317-.984.528-1.452Zm52.365 579.174c-.61.619-1.667.889-2.604.593-3.111 8.828 13.769 8.274 19.187 8.771 5.777.614 111.007 6.08 93.211-6.863-20.879 7.947-90.711 8.823-109.794-2.501Zm51.247-35.005c-1.405 1.446-3.523 2.09-5.03 3.47-4.26 3.599-7.686 8.661-13.574 9.615-7.734 1.441-14.707-2.37-21.625-5.389-.862-.041-1.76-.405-2.643-.674-.032.064-.063.128-.098.187a.646.646 0 0 0-.141-.039c-.077-.013-.149-.021-.225-.032a3.429 3.429 0 0 0-.558-.362 3.84 3.84 0 0 0-.349-.039c-1.426-.087-2.974.244-3.889 1.424a4.299 4.299 0 0 0-.218.315c-.443 1.569-.5 3.467-.286 4.795.069.434-.112.86-.418 1.106-.274 6.568-1.014 13.163-1.531 19.644a46.019 46.019 0 0 0 7.96 2.083c18.545 2.277 37.288 3.335 55.975 2.763 11.125-.402 22.233-1.395 33.242-3.045 3.559-.334 7.202-1.709 10.758-1.154.152-.286.388-.53.716-.697-9.116-12.465-24.697-15.835-38.28-21.3-2.244 1.432-3.625 4.415-6.124 5.303-.97.145-2.319-.426-2.177-1.655.403-2.516 3.125-3.663 4.958-5.124a67.967 67.967 0 0 1-5.778-3.022c-1.849 1.664-4.036 2.93-5.767 4.704.984 2.399-3.118 2.191-3.164-.361.284-2.825 4.765-4.02 6.766-5.667-3.126-1.9-5.918-4.296-8.5-6.849ZM43.166 719.351c-.109.214-.286.41-.55.562-.456.263-.237 1.656-.214 2.125l.002.034c.025.843.077 1.684.15 2.523.77.693 1.754 1.22 2.847 1.537 33.292 5.304 67.224 5.735 100.837 3.809-.154-.892-.807-1.627-1.386-2.371-21.25 1.804-43.011-.084-64.297-1.841-12.444-1.633-25.482-2.309-37.389-6.378Zm48.47-32.644c-5.487 1.885-10.592 4.502-15.456 7.637-1.807 1.174-3.532 2.52-5.61 3.194-7.193 2.161-17.978-8.223-18.151-8.339-2.498-1.68-5.147-.114-6.506 2.213-.126.216-2.21 12.12-2.146 17.952-.374 1.982.623 5.223.092 7.384.418.502 1.013.738 1.413 1.262.145.19.104.405-.021.567 19.426 1.596 38.738 4.625 58.256 5.265 13.359.705 26.742.543 40.103.381-3.04-8.911-13.394-11.265-21.302-14.199a52.701 52.701 0 0 1-16.317-9.442c-2.099 1.472-3.754 3.534-5.241 5.605-.676.842-2.064 1.478-2.787.311-.746-1.21.71-2.74 2.506-4.081a14.095 14.095 0 0 1 3.508-3.568 59.08 59.08 0 0 1-4.346-4.252c-2.837 1.92-4.922 4.681-6.963 7.361-.98 1.068-2.815-.344-2.01-1.548a19.143 19.143 0 0 1 2.147-2.314c1.172-2.206 2.858-4.243 4.904-5.654l-.156-.198c-1.709-2.19-3.186-4.818-5.917-5.537Zm-48.343 31.245a2.206 2.206 0 0 1-.15.167c.047.096.084.197.11.299l.499.04a2.65 2.65 0 0 1-.46-.506Zm206.923-40.312c-10.177 1.919-20.691 2.657-30.964 1.072 1.19 6.625 1.935 13.291 1.545 20.018 15.359 4.428 21.741 11.81 34.521-2.944-.618-.939-.974-2.091-1.389-3.203-1.766-4.824-3.225-9.814-3.713-14.943ZM63.281 655.912a1.259 1.259 0 0 1-.784.701 80.054 80.054 0 0 1-.422 1.777c-.249 3.052-1.403 6.078-2.596 8.894l-.243.583c-.787 2.342-1.612 4.679-2.426 7.019-.617 2.431-1.16 4.881-1.727 7.324a32.405 32.405 0 0 1-.708 4.923 1.58 1.58 0 0 1-.064.212c.569.253 1.118.547 1.636.843 15.583 11.69 12.891 3.874 27.854-2.67-.086-.629.229-1.196.486-1.847l.033-.085.047-.124a2.44 2.44 0 0 1 .056-.798c1.515-6.189 3.625-12.27 5.6-18.325.316-.912.682-1.803 1.056-2.693-9.487-.122-18.87-2.644-27.798-5.734Zm-4.104 3.007c-.184.808-.384 1.606-.566 2.377l-.269 1.149c.382-1.162.684-2.34.835-3.526Zm90.245-499.244c-3.302.802-6.686 1.129-10.006 1.795-22.887 2.725-40.434 18.928-55.548 35.016-28.632 30.024-45.29 66.966-44.06 108.72 10.224 1.859 20.343 4.581 30.76 5.176-1.513-2.29 1.022-5.153 1.895-7.345 15.068-29.065 26.703-61.15 36.15-91.749l-.257 1.335c-2.966 15.358-6.422 30.65-11.696 45.402 1.528-1.5 26.625-21.428 24.664-14.838-7.668 5.983-16.329 10.725-24.363 16.215 9.553 31.859-4.258 64.14-6.882 96.012-.66 7.087-.602 14.223-1.488 21.283-.337.798.018 2.422-.478 3.182.367 1.874 1.14 3.581 2.735 5.044a14.364 14.364 0 0 0 2.174 1.625c1.924.289 3.856 1.029 5.422 1.714 3.486 1.524 6.553 3.771 9.669 5.917l.083.056c5.024 2.577 10.042 5.505 15.079 8.558l.225.117c1.874.982 3.789 1.867 5.422 3.229a.556.556 0 0 1 .156.207l3.06 1.887c24.506 15.098 49.773 30.03 78.504 19.252 8.073-3.246 19.808-9.823 18.301-19.993-.297-.975-.749-1.891-1.26-2.783a20.59 20.59 0 0 0-.435-.565c-1.114-1.405-2.36-2.694-3.326-4.211a17.172 17.172 0 0 1-1.055-1.907.854.854 0 0 1-.534-.486c-1.383-3.011-2.737-6.027-3.999-9.092-15.295-53.231 3.27-110.426 8.522-164.116.364-3.075.9-6.181.899-9.277 0-.146.211-.141.222 0 1.853 13.703.448 27.534-1.314 41.176-2.255 17.065-5.217 34.06-7.253 51.157 5.411 17.233 20.566 29.685 36.478 37.152a89.981 89.981 0 0 0 8.298 3.436l.19.066c3.101 1.083 6.601 2.758 9.593.563 5.742-3.891 9.796-9.827 13.517-15.544a114.432 114.432 0 0 0-4.521-.407c-3.704 4.229-8.242 7.82-13.031 10.754-1.952 1.116-4.169.644-5.071-1.542-.852-2.062.191-4.472.946-6.46l.109-.291c3.822-10.289 10.458-19.719 19.419-26.163-6.76-1.349-13.782-1.308-20.268-3.975.354.371-.11.786-.335 1.1.08.61-.364 1.056-.909 1.219-5.292 6.902-9.302 15.076-10.14 23.83.223 2.982-2.449 6.425-5.023 3.295-2.013-8.715 5.905-22.333 12.867-27.711-6.982-4.784-4.947-11.687-9.33-11.719-1.132 2.17-2.61 4.248-4.473 5.86-.842.684-1.864 1.199-2.768 1.805-.95.638-1.94-.765-1.187-1.535l.199-.239c2.858-3.413 6.253-6.769 6.843-11.387.854-5.687-1.706-11.448-3.669-16.643a129.042 129.042 0 0 1-7.474-30.897c-1.377-9.475.298-19.302-2.951-28.471a31.64 31.64 0 0 0-2.713-7.037.686.686 0 0 1-.079-.074c-1.351-1.56-2.431-3.297-3.691-4.931a53.942 53.942 0 0 0-4.26-4.877c-2.529-2.573-5.321-4.72-8.232-6.787a1.04 1.04 0 0 1-.163-.077 11.385 11.385 0 0 1-1.574-1.142l-.049-.034c-1.693-1.174-3.42-2.449-4.741-4.043-1.297-1.566-2.22-3.391-3.279-5.115-1.447-1.763-2.826-3.651-4.572-5.12-.987-.562-2.014-1.092-2.895-1.796a10.55 10.55 0 0 0-.44-.171c.375 1.528.943 2.934 1.455 4.486.742-.312 1.756.034 1.881 1.175l.046.425c.745 6.983 1.121 15.433-2.992 21.479-9.059 13.111-22.589 1.917-29.431-7.302-6.141-7.353-11.304-15.532-15.116-24.321l-.063-.116c-.71-1.346-2.249-5.447-2.683-7.418-1.1-.578-2.437-.858-3.706-1.013Zm-29.001 244.368a.5.5 0 0 1-.093.091c1.285 1.821 2.509 3.705 3.77 5.533a68.69 68.69 0 0 1-2.867-5.107c-.269-.174-.54-.345-.81-.517Zm-71.9-70.764c4.91 26.608 11.926 54.603 31.477 74.497-6.085-8.555-10.817-18.543-12.193-29.004-.057-2.807.967-5.773 4.079-6.189.531-.071.935.404 1.124.827l.019.042a39.585 39.585 0 0 0 4.7 8.233l.185.24c1.423 1.836 7.46 9.321 8.303 5.743-.617-18.084-19.341-25.54-22.408-50.448-5.246-.554-10.225-2.543-15.287-3.941Zm40.253 52.778c.02.284.03.565.025.842a5.85 5.85 0 0 1 .857-.278c-.297-.183-.59-.372-.882-.564Zm-.279-1.948c.103.52.19 1.044.243 1.563.535.17 1.063.355 1.59.548a10.884 10.884 0 0 1-.907-.91 11.678 11.678 0 0 1-.926-1.201Zm7.236-123.445c-3.835 10.684-8.13 21.203-12.927 31.493-3.22 6.021-5.369 13.038-9.825 18.263a1.936 1.936 0 0 1-.132.117l.074.003c1.328.058 8.543.767 4.84 2.396-1.439 5.656-3.323 11.182-4.898 16.801l-.035.163c-.576 2.717-1.305 8.191-5.173 6.364-.42.32-.923.546-1.465.697 1.739 15.227 11.388 25.14 19.016 37.573-1.705-6.561-1.207-13.413-.613-20.113l.147-1.649c3.152-30.718 14.718-60.924 10.991-92.108Zm32.034 97.642c-6.217-7.735-36.795-84.315-15.186-37.92 7.68 16.151 14.002 33.442 26.672 46.529.876.94-.278 2.591-1.416 1.832-4.09-2.725-7.4-6.34-10.07-10.441Zm-22.131-92.559c-.026-.124.134-.192.204-.086 8.308 16.371 14.24 33.963 23.627 49.838a146.246 146.246 0 0 0 20.252 27.255c.585.621-.295 1.478-.929.927-22.227-20.466-33.033-50.217-43.154-77.934Zm163.822 67.398-.013.002-.205.527-.211.539.102-.043c.073-.073.146-.148.219-.225-.016-.27.017-.54.108-.8ZM36.648 302.893c-1.128.442-2.515.526-3.762.634 1.396 6.567 2.602 13.184 3.866 19.769.585 2.021 1.959 2.731 3.86 3.372l1.53.487c7.135 2.283 14.311 4.626 21.669 6.026.517-.336 1.252-.32 1.595.219.358.033.726.053 1.089.087 1.966-7.245 5.33-14.267 9.831-20.277-12.582.405-25.255-2.907-37.225-6.61-.485.235-1.123.088-1.328-.467l-.184-.053c-2.01-.595-4.674-2.057-.451-1.314-.255-.594-.397-1.232-.49-1.873Zm289.322-5.361c-8.341-1.376-14.715 5.368-21.833 8.464-4.261 1.825-15.618 7.483-19.747 5.601-5.661 5.438-10.44 11.792-13.782 18.92a99.791 99.791 0 0 1 2.734-.123 8.625 8.625 0 0 1 5.125-.047c17.164.189 34.339 3.517 51.433-.701l.394-.074c3.511-.665 15.5-3.194 16.183-5.672-.179-1.079-3.403.061-4.023.183-4.927.968-9.933 1.43-14.925 1.916-1.389.134-1.371-2.022 0-2.159 6.009-.597 11.703-2.848 17.217-5.191.586-.259 2.139-.796 3.214-1.493-5.095.864-10.345 1.014-15.5.831-1.775-.229-1.9-2.92 0-2.867 3.48.384 6.805-1.33 9.646-3.14l.618-.401c4.736-3.081 4.405-3.214-1.58-2.069-8.794 1.598-17.694 1.539-26.576.929-1.267-.021-2.142-1.724-1.094-2.635 4.09-3.525 8.474-6.667 12.496-10.272Zm-40.314 12.835-.097.092c-.204.195-.372.368-.465.46l-.038.037c-.126.118-.248.239-.372.358.545.183 1.147.194 1.767.098a1.96 1.96 0 0 1-.795-1.045Zm-156.712-28.209.047.05c5.365 5.794 10.803 15.19 15.248 22.6.586 6.074-12.556-19.125-15.274-22.625l-.021-.025Zm135.026 22.417c.052.064.102.13.15.198l.072.102.115-.071a.52.52 0 0 1 .133-.053c-.157-.057-.314-.118-.47-.176Zm-24.548-19.779c4.827.756-5.044 6.741-6.346 7.599-.835.316-8.767 6.852-8.286 4.731l.225-.287c3.694-4.692 8.729-10.057 14.407-12.043ZM50.588 272.252c1.786-2.87 11.502.908 14.574 1.361 1.726.455 3.434.993 5.18 1.375 1.363.494 7.722.015 5.388 2.705-2.435 1.307-5.614.297-8.108-.397-4.961-1.352-9.94-2.93-15.02-3.681-.153-.076-.162-.024-.028.155 1.093 2.424 3.39 4.697 5.98 5.479.179.051.103.324-.078.278-2.825-.56-9.406-3.689-7.888-7.275Z" clip-rule="evenodd"></path><path fill="#fff" fill-rule="evenodd" d="M217.455 80.983c-14.281-9.434-42.891-8.41-58.611-2.63-15.339 4.855-20.709 18.383-23.256 32.997-3.096 16.426-2.68 40.104 19.581 39.817 3.13 1.511 6.597 2.166 9.835 3.417 4.432 1.529 8.778 3.304 13.275 4.644 8.858 2.847 18.715 2.599 27.117-1.567 4.643-2.238 6.564-5.723 9.6-9.437 8.832-10.804 13.276-26.266 12.878-40.004-.698-9.674-2.301-20.872-10.419-27.237Z" clip-rule="evenodd"></path><path fill="#000" fill-rule="evenodd" d="M235.526 120.803c-1.465-9.077-1.871-18.309-3.79-27.315-1.805-8.475-5.18-16.484-11.077-22.945-5.277-5.78-12.1-10.026-19.424-12.716-14.268-5.24-30.679-4.055-44.482 2.063-12.919 5.723-23.224 16.313-29.23 29.021-3.902 8.257-5.863 17.036-6.735 26.097-.967 10.066-1.071 20.236-1.465 30.338-.048 1.246-.117 2.493-.133 3.74-.019 1.365.534 2.562.985 3.832.031.09.076.176.131.256-.34.043-.679.092-1.019.147-.38.059-.363.675 0 .749 3.076.626 6.237.713 9.364.867 3.242.162 6.489.249 9.735.358l9.497.32c1.663.057 3.325.114 4.987.168.791.027 1.582.055 2.375.081.395.015.791.026 1.185.04.321.01.844.214.877-.021a.883.883 0 0 0 .192.088c.076.04.15.087.221.14.387.265.974.232 1.366 0l.111-.069c.292-.173.497-.424.611-.709 1.624 1.958 4.5-.242 2.838-2.313-.893-1.114-9.776-28.425-6.099-49.229l14.743-1.949c2.696-.272 7.711-.815 7.711-.815s1.228-3.998 1.58-5.285c.026-.095.052-.192.08-.287.352.619.706 1.235 1.062 1.851l1.819 3.69s26.851-.448 33.434-.405c.112 0 .641 7.987.401 11.504-.484 7.063-.999 14.121-1.717 21.165a49.211 49.211 0 0 1-3.204 13.091c-2.597 6.567-10.135 12.809-17.486 12.809-4.575 0-14.914-3.698-16.42-4.445-1.505-.747-2.403 1.291-1.031 2.107 2.78 1.651 10.442 5.155 17.451 5.155 10.18 0 17.864-9.64 18.807-11.021 9.269-.507 18.75-.273 28.007.644.777.076 1.446-.858 1.197-1.571-3.325-9.497-5.854-19.292-7.455-29.226Z" clip-rule="evenodd"></path><path fill="#000" fill-rule="evenodd" d="M183.91 137.772c2.908-3.372 7.806-3.607 11.864-2.764 2.604.541 5.139 1.443 7.784 1.777 1.235.156 2.483.203 3.728.18 1.222-.022 2.446-.268 3.664-.223.187.007.257.253.095.352-1.671 1.025-3.921 1.353-5.895 1.553.006.146.015.288.035.409.054.322.103.641.143.965.09.73.19 1.458.29 2.187.197 1.434.259 2.914.606 4.323l.06.234c.08.297.099.564.072.805l.08-.037.254-.122.166-.079c.606-.28 1.185-.484 1.898-.416.543.051.999.421 1.002.999.014 2.597-3.493 3.432-5.498 3.929l-.588.144c-2.553.622-5.16 1.167-7.785 1.297-4.214.209-8.949-.951-11.705-4.362-2.572-3.182-3.043-7.935-.27-11.151Zm19.134 10.909c-.442-3.909-5.255-4.124-6.64-1.645-.614-3.455-9.705-.298-8.994.389 2.694 2.603 6.783 2.838 10.297 2.356 1.79-.245 3.582-.645 5.337-1.1Zm-5.341-10.245-1.21-.174-.477-.066c-3-.401-6.374-.608-8.841 1.312-.9.7-1.407 1.614-1.596 2.596 2.334-.345 4.676-.609 7.026-.828l.641-.059c1.47-.132 2.939-.271 4.408-.418l1.043-.105 1.044-.108c.367-.039 2.841-.165 3.306-.08.05-.417.115-1.32.22-1.726-1.758.06-3.508-.071-5.256-.303l-.308-.041Zm5.57-17.473c1.794 1.088 4.526 3.625 2.597 6.322-2.271 2.378-5.54-.349-7.152-1.582-1.494-.956-3.172 1.502-1.786 2.618 11.643 8.602 16.367-7.074 7.248-8.637-1.004-.172-1.376.942-.907 1.279Zm3.21 4.583.086-.047.029-.017c.05-.033.018-.029-.096.01l-.086.031v.061c.022-.014.045-.024.067-.038Zm-22.968-9.665-.001-.054c.004-1.511.886-4.962 3.066-4.962 1.362 0 2.189 2.349 2.332 4.77l.005.098c.063 1.505-.351 4.795-2.337 4.795-2.008 0-3.045-3.116-3.065-4.647Zm32.098-.474v-.054c-.003-1.511-.885-4.962-3.066-4.962-1.327 0-2.147 2.233-2.32 4.588l-.012.182c-.086 1.454.301 4.893 2.332 4.893 2.008 0 3.045-3.116 3.066-4.647Zm-30.854-14.846c1.779-.27 4.135.243 4.965 2.048.369.804-.069 1.694-1 1.739-2.252.107-4.271-.393-6.248 1.068-.85.629-1.565 1.5-2.165 2.369l-.227.33-.189.272c-.407.598-.793 1.248-.733 1.969.018.214-.201.416-.408.408-1.296-.053-1.435-1.674-1.265-2.647.317-1.807 1.193-3.503 2.407-4.869 1.276-1.434 2.959-2.399 4.863-2.687Zm24.506 2.192c1.227-.787 2.796-1.089 4.234-.974 2.834.228 7.588 2.632 6.962 6.087-.193 1.065-1.678 1.627-2.553 1.036-.94-.635-1.169-1.623-1.869-2.453-.559-.664-1.267-1.144-2.025-1.552-.747-.404-1.612-.648-2.46-.737l-.141-.014c-.51-.043-3.087-.031-2.709.929.074.188-.206.337-.335.194-.79-.872.105-2.008.896-2.516Z" clip-rule="evenodd"></path></svg>