<svg xmlns="http://www.w3.org/2000/svg" width="434" height="635" fill="none" id="man-sitting-holding-both-legs"><path fill="#fff" fill-rule="evenodd" d="M387.554 528.483c-7.613-10.817-23.659-12.608-33.967-20.187-5.43-4.158-11.177-6.91-15.397-12.507 6.719-7.883-1.59-26.363-3.3-37.034-6.776-27.94-13.043-56.326-21.102-84.233 13.966 4.342 10.327-21.654 8.333-27.665-.138-.826-1.163-.991-1.791-1.252.175-1.18.659-1.439-.808-1.765-.491-7.072 1.513-14.992-2.108-21.24-4.083-6.82-13.841-12.527-21.903-12.621-5.663-22.46-6.701-33.053-33.533-23.533.593-2.187.778-4.193-.256-6.403-4.035-12.175-9.106-25.495-13.515-37.833-5.082-14.199-10.337-28.881-17.134-42.523-4.734-8.663-19.543-10.98-29.581-9.545-2.395-4.219-8.431-15.888-16.066-13.19-.057-3.519-.112-7.039-.158-10.558-.039-3.06.283-6.197-.895-9.102-1.248-3.077-3.789-4.701-6.773-5.879-9.034-2.979-19.411-7.766-28.944-4.804-8.328 3.795-7.358 18.068-11.389 25.826-5.648-8.362-15.28-2.755-17.318 6.214-23.202 9.235-43.145-1.256-44.63 34.998 1.28 6.609 2.367 12.808 1.76 19.481l-.701.072c-5.939 32.123-8.222 66.558-6.787 102.356-.287 14.095-5.431 27.25-10.405 39.969-3.66 9.353-7.437 19.024-9.228 28.946-1.986 8.264-9.286 48.005 6.947 34.811.622 45.212 40.968 51 77.299 41.014 38.57-8.007 81.99-5.705 106.061-44.441 8.166 13.955 10.984 22.57 13.034 37.163 2.249 10.69 5.516 22.83 11.52 29.901-5.17 9.293-7.702 20.614-7.453 27.992.098 2.899-1.229 4.241.679 6.042 9.151 8.643 29.57 8.74 45.097 12.587 10.646 1.353 49.141 6.529 55.024 3.155 4.103 1.146-.668-9.516 3.434-9.744 1.404.011 1.592-1.775 3.033-1.709 9.202.419 29.041 3.12 24.245-4.289l-1.324-8.47Z" clip-rule="evenodd"></path><path fill="#000" fill-rule="evenodd" d="M385.269 538.952c-6.784 1.464-13.762 1.055-20.636 1.627.223-.574.409-1.163.554-1.761 7.103-.858 14.552-1.266 21.324-3.61.159.762.279 1.533.327 2.312.006.104-.008 1.269.158 1.053-.206.267-1.419.322-1.727.379m-34.276-17.584c-12.393-4.068-25.54-7.575-35.065-17.052 8.812-3.193 15.156.877 22.731-7.296.289.062.568.148.841.255 8.135 13.824 25.467 16.457 38.16 24.467 5.146 2.992 14.73 11.049 2.469 11.229-4.84.733-9.708 1.276-14.589 1.65-.377-7.783-8.095-11.193-14.547-13.253m8.632 19.937c-2.455 3.345-6.888 4.666-10.898 4.339-2.95-.4-5.552-1.436-8.62-1.213-23.256-.882-46.125-5.695-68.803-10.608-20.314-3.807-4.79-18.789-6.485-30.908 2.867 1.747 6.117 3.022 9.463 3.958 4.311 11.987 16.091 8.858 24.436 3.115 8.163.648 9.577-2.102 16.252-5.287 7.176 12.844 23.24 15.708 35.945 20.587 7.72 2.079 14.042 8.039 8.71 16.017m-.422 10.713c-6.527 1.949-13.433 1.611-20.167 1.062-22.122-1.915-44.097-5.682-65.558-11.38-5.09-1.352-14.965-2.922-15.433-9.304 4.531 5.936 12.619 6.636 19.414 8.167 22.304 4.367 45.15 10.007 67.961 8.92 4.817 1.369 10.068.288 14.144-2.378a504.63 504.63 0 0 0-.361 4.913m-69.651-42.601c-4.913 2.053-9.495 1.548-13.49-2.082 4.562 1.113 8.924 1.571 13.49 2.082m-28.708-18.493c-2.203-5.49-4.45-21.955-5.55-27.696-2.175-10.919-7.176-20.936-13.037-30.651-12.009-19.906-27.627-38.537-29.976-61.034.044-1.318.094-2.636.119-3.954.052-2.742.302-5.714-.216-8.407-.017-.089-.136-.069-.162 0-1.03 2.696-1.344 5.898-1.741 8.759-.368 2.648-.67 5.285-.691 7.961-.02 2.542.145 5.129.73 7.611l.072.299a44.659 44.659 0 0 1-1.136 2.93c-.981 2.278-2.074 4.518-3.171 6.742a2617.775 2617.775 0 0 1-6.727 13.529c-2.299 4.589-4.588 9.183-6.936 13.747a107.298 107.298 0 0 0-2.087 4.32c-5.809 8.796-12.127 17.256-18.954 25.291-5.93 6.404-11.21 14.066-19.248 17.948-7.979 4.053-16.687 6.596-24.869 10.145-32.186 5.628-61.545 5.659-69.64-38.582.814-.968 1.555-2.002 2.289-2.906 3.985-4.919 7.807-9.969 11.636-15.008 7.225-9.508 14.517-19.085 23.33-27.205 17.743-15.038 37.307-28.456 50.346-48.176 1.232-1.623 2.24-3.388 2.914-5.288 8.739 3.48 18.582 4.307 27.916 4.674 12.542.491 25.088 1.009 37.635 1.344 3.517 5.024 14.417 5.467 19.595 6.309 1.062.116 1.95-.816 2.265-1.72a328.53 328.53 0 0 1 2.709-7.465c11.059 2.074 22.17 3.853 33.255 5.807.746.622 1.043 1.474 1.329 2.543.439 1.644.862 3.293 1.308 4.936.846 3.117 1.797 6.214 2.673 9.326.488 1.734.915 3.553 1.488 5.309 9.605 40.722 23.148 85.882 32.877 124.16.32 1.416.6 3.263.358 4.798a28.31 28.31 0 0 1-5.454 3.316c-13.67-.956-38.377 1.007-45.249-13.712m-95.5-19.331c-3.967.51-8.004 1.173-12.075 1.911 3.56-1.593 6.905-3.588 9.611-6.466 19.356-19.535 35.063-42.929 45.204-68.505 1.384-3.439 2.785-6.916 3.977-10.446.216.327.458.637.729.927 4.694 15.459 15.367 29.56 24.289 44.149-13.96 25.712-44.671 34.308-71.735 38.43m-109.89-29.612c.087-.065.175-.126.26-.194l.029.36-.289-.166m68.837-236.49c1.219 3.652 2.464 7.299 4.393 10.641 3.157-2.047 5.779-4.865 9.061-6.701 3.389-1.895 6.829-1.384 10.125.468.864.485.087 1.812-.777 1.327-1.665-.936-3.498-1.687-5.446-1.512-1.524.136-2.896.839-4.149 1.676-3.013 2.012-5.56 4.604-8.686 6.473-.363.217-.837.075-1.052-.276-2.232-3.634-3.61-7.665-4.953-11.688-.315-.941 1.172-1.342 1.484-.408m30.669 88.037c.822.545.051 1.876-.776 1.327-9.298-6.174-9.847-18.448-15.345-27.267-.525-.843.806-1.614 1.329-.776 5.298 8.5 5.864 20.787 14.792 26.716m32.103-64.084c1.964-.514 6.301-1.029 8.555-2.509 5.42 18.555 12.797 36.484 20.47 54.212.529 1.208 1 2.809 1.747 4.076-3.763 1.04-7.199 2.243-9.954 3.457a72.727 72.727 0 0 0-9.973 5.297 66.98 66.98 0 0 0-7.983 5.46c-.771-.161-1.542-.322-2.314-.486-2.611-.563-5.255-1.165-7.802-2.023-.651-1.595-.864-3.47-1.418-5.042l-2.885-10.35c-5.158-18.306-10.114-36.671-15.346-54.957 8.261 3.823 18.059 4.356 26.903 2.865m10.201-15.546c.708-2.984 2.152-6.666 5.803-6.557 2.798.084 5.476 1.723 8.01 2.955-.118-.903-.756-1.673-1.326-2.443-.59-.797.746-1.562 1.328-.776 1.046 1.413 1.927 2.779 1.408 4.575-.151.52-.678.654-1.131.458-2.467-1.067-4.958-2.726-7.648-3.167-3.264-.534-4.347 2.777-4.961 5.363-.228.964-1.712.553-1.483-.408m47.748 72.511c3.365.712 4.968 3.728 6.658 6.422a483.55 483.55 0 0 1 15.214 26.016c.277.464.521.966.773 1.46-6.236-.556-12.393-1.472-18.264-3.762 1.231-2.783-.86-3.259-3.204-4.878-2.511-1.569-5.165-3.011-8.048-3.772-1.649-.435-5.443-.53-5.889 1.657a2.216 2.216 0 0 0-1.308-1.362c-4.686-1.539-9.664-2.108-14.463-3.25-8.112-1.707-16.236-3.347-24.351-5.042a116.076 116.076 0 0 1 6.684-3.954c7.121-3.573 14.69-6.38 22.463-8.081 7.787-1.708 15.781-2.304 23.735-1.454m-17.9-54.812c2.216 11.535 4.047 23.155 7.091 34.514.257.958-1.228 1.363-1.484.408-3.044-11.358-4.875-22.978-7.091-34.513-.186-.968 1.298-1.379 1.484-.409m57.045 54.95c6.868 6.294 6.417 16.842 9.369 25.128 1.249 4.312 2.672 8.578 4.422 12.716l.115.277c-8.254-2.971-17.048-3.38-25.799-4a2.98 2.98 0 0 0-.29-.789c-1.406-2.699-2.932-5.344-4.404-8.01a468.927 468.927 0 0 0-12.281-20.58c-.266-.42-.533-.852-.805-1.285 9.016-2.945 21.742-8.471 29.673-3.457m32.405 40.231c.819 3.864.293 7.928.072 11.861-3.742-4.965-8.484-9.203-14.032-12.025-.369-2.484-1.937-4.648-2.66-7.06-1.336-3.403-2.418-6.88-3.393-10.391 9.046 1.882 17.851 8.443 20.013 17.615m-84.181-16.23c.005-.087.007-.171.005-.258.005-.003.01-.005.012-.008.236-.23.498-.407.785-.532-.272.258-.538.524-.802.798m1.349 33.025c-.667 1.7-1.321 3.406-1.965 5.114-3.188-.546-9.974-1.831-12.752-3.296.99.034 1.97-.481 2.221-1.662.111-.522.285-1.011.421-1.521 1.674-5.451 3.103-11.013 5.468-16.239 2.313-5.519 5.065-10.881 7.168-16.481 3.566-.225 9.198 4.195 11.745 5.997-4.543 9.15-8.577 18.534-12.291 28.047-.069 0-.141 0-.21.003l.195.038m84.774 5.964c.251 1.36.536 2.709.728 4.082.487 5.364 1.152 11.016-.921 16.163-1.285 3.152-3.919.617-5.666-.618-2.841-1.981-5.457-4.255-8.066-6.529-8.012-7.526-17.376-13.925-28.615-14.983-12.134-1.685-25.282-3.789-37.372-4.097 3.304-8.755 6.886-17.392 10.352-26.093 6.429 3.6 13.688 4.917 21.1 5.756.174.088.359.164.559.226.352.072.647.038.883-.069 9.884 1.044 19.966 1.454 28.661 5.492 3.365 1.562 6.522 3.667 9.38 6.566a31.985 31.985 0 0 1 7.335 10.586c.528 1.229.808 2.507 1.642 3.518m13.903 115.765c1.557 8.071 8.02 26.055-1.693 30.531-4.337 2.4-9.799 1.015-14.096 3.213-.11-1.377-.369-2.742-.68-4.007-12.523-40.865-24.099-94.362-38.684-135.196a222.954 222.954 0 0 0-1.422-4.962c-.415-1.377-.743-2.846-1.352-4.11 4.057.744 8.092 1.619 11.778 3.529 7.782 3.16 18.68 16.882 26.815 21.002.323 3.032 1.216 6.051 1.673 9.045 5.773 27.007 11.798 53.963 17.661 80.955m57.948 67.595c-.138-.656-.501-1.082-.959-1.312.07-13.772-28.924-18.248-37.71-27.018-4.019-2.837-6.943-7.523-11.611-9.279.084-.118.171-.232.253-.352 4.95-8.148-2.868-27.949-4.253-36.453-6.355-26.582-12.519-53.229-19.71-79.601-.147-.504-.418-1.503-.76-2.607.775.187 1.516.249 2.211.159 10.088-2.233 7.823-22.605 5.453-29.988-.254-.87-.846-1.421-1.541-1.68.089-.45.008-.929-.313-1.387a1.387 1.387 0 0 0-.724-.513c-.305-7.006 1.447-14.537-2.246-20.938-4.15-7.001-14.05-12.793-22.016-13.2-1.142-4.128-2.142-8.297-3.245-12.432-1.21-4.33-2.934-8.983-6.558-11.887-4.689-4.164-14.697-2.894-22.999.049.454-2.169-.58-4.131-1.213-6.164a1105.637 1105.637 0 0 0-6.361-18.193c-7.789-20.383-14.186-41.511-23.929-61.054-4.035-6.625-11.793-9.61-19.242-10.225-3.493-.351-7.209-.487-10.736-.074a26.317 26.317 0 0 0-.346-.64c-2.89-5.001-8.756-14.312-15.507-12.714-.713-4.755-.723-9.628-.136-14.386.041-.338-.513-.484-.651-.177-4.473 10.018-3.642 22.345 1.816 31.829.4.659.944.999 1.508 1.096.869 9.959 3.042 19.787 5.722 29.433-.403.015-.79.1-1.113.243-8.551 3.127-17.954 3.636-26.854 1.81-2.506-.527-4.932-1.236-7.371-1.959-.461-1.597-.923-3.19-1.388-4.785-1.164-5.04-1.461-9.882-4.416-13.941-.175-.299-.354-.596-.526-.893a1088.84 1088.84 0 0 0-7.212-12.834c-.59-.699-4.535-8.461-7.605-13.155.385-.01.783-.107 1.17-.302 2.164-1.078 2.141-4.204 2.536-6.301 1.211-6.517 2.612-13.045 2.996-19.674.02-.338-.497-.481-.649-.174-2.952 5.843-4.998 12.096-7.184 18.255-.044.123-.089.248-.138.376-2.026-2.55-5.584-3.157-8.682-2.471-5.178 1.35-7.79 5.552-9.295 10.33-14.889 7.095-32.606-.151-41.642 18.621-2.264 5.455-3.243 11.317-3.215 17.438.321 1.391.565 2.801.786 4.2.533 3.382.885 6.793 1.485 10.165.656 3.685 1.704 7.31 2.859 10.867 2.547 7.848 5.927 15.384 9.22 22.94.391.899-.935 1.68-1.33.775-1.813-4.161-3.651-8.312-5.37-12.513-2.49-6.082-4.837-12.36-6.282-18.802-6.476 34.279-8.49 69.302-7.096 104.143-.509 24.155-15.349 45.111-19.601 68.618-2.121 9.265-3.452 18.762-3.288 28.28-.293 4.525 1.478 10.987 6.536 10.812.886.358 1.77.681 2.664.989.251.094.492.176.714.244.25.076.482.06.683-.015 3.885 38.377 34.714 45.755 70.13 38.899 1.467.026 2.909-.312 4.45-.745a78.169 78.169 0 0 0 2.237-.702c.559-.133 1.12-.269 1.682-.409 24.225-4.925 49.616-5.736 72.512-15.823 13.243-5.784 25.705-14.816 33.21-27.322 4.375 7.674 8.025 15.541 9.859 23.86 1.31 6 3.557 22.542 5.244 28.459.788 2.945 2.147 5.424 3.922 7.511l-.014.027a13.515 13.515 0 0 1 3.957 3.331c-1.153 9.764-11.12 19.154-6.023 29.349-2.405 5.526 3.497 10.022 8.354 11.163 7.446 2.377 15.13 4.165 22.755 5.861 15.097 2.811 62.348 13.198 73.659 5.112-.163-1.726 1.963-7.333-.546-7.416a14.286 14.286 0 0 0 2.733-3.769c6.922 2.249 14.615 1.444 21.663.614 5.7.123 5.491-5.421 4.627-9.579" clip-rule="evenodd"></path><path fill="#fff" fill-rule="evenodd" d="M156.509 65.773c38.007-1.866 55.159 24.856 56.268 36.791.77 8.286-4.132 17.835-4.132 25.239 0 3.779 4.633 11.892 2.476 17.399-4.801 12.26-14.967 25.865-27.921 25.865-12.954 0-29.813 3.578-44.127-16.888-1.343-1.92-18.331-12.834-19.981-23.205-4.111-25.832 10.297-63.87 37.417-65.2Z" clip-rule="evenodd"></path><path fill="#000" fill-rule="evenodd" d="M154.717 49.143c1.359-1.553 3.654-2.174 5.692-2.053 2.962.175 5.537 2 8.484 2.135 3.089.143 6.071-.926 9.167-.43 1.899.305 3.779 1.184 4.995 2.667 4.213-1.205 8.787.39 11.47 3.873 3.31-.513 6.911 1.676 7.924 4.86 4.205.136 8.175 3.509 8.644 7.735 1.68.444 3.139 1.6 4.035 3.13 1.04 1.773 1.213 3.806 1.025 5.805 1.979 1.009 2.984 3.177 3.247 5.47 1.808 1.348 2.593 3.77 2.225 6.056 1.384.778 2.099 2.591 2.091 4.209-.007 1.51-.408 2.847.156 4.304.502 1.298.683 2.38.406 3.739l-.028.132c-.049.222-.09.435-.127.644.375.328.691.739.929 1.218.867 1.747.738 3.741.077 5.513.289 1.129.253 2.322-.175 3.407a6.159 6.159 0 0 1 1.099 4.034 6.566 6.566 0 0 1-2.03 4.202c.304 2.244-.61 4.669-2.262 6.249a5.933 5.933 0 0 1-.704 4.025 5.567 5.567 0 0 1-2.045 2.055 6.605 6.605 0 0 1-.325 2.284 7.316 7.316 0 0 1-1.707 2.838c.461 2.944-1.304 6.211-4.411 7.037-.261.069-.51.101-.749.106a32.08 32.08 0 0 1-2.026 8.276c-2.653 6.754-7.478 12.658-13.769 16.341-3.112 1.821-6.608 3.068-10.176 3.589-2.568.375-5.038.283-7.615.027-3.235-.323-6.485-.806-9.63-1.638l-.506-.134c-1.303-.349-2.677-.751-3.807-1.453-1.264-.786-1.92-1.998-2.211-3.426-.163-.794.341-1.648 1.212-1.665h.056c.191.004.38-.003.571-.015l.144-.01h.008c.01-.002.015-.002.025-.002.085-.013.168-.038.25-.05.958-.161 1.796-.002 2.696.297l.113.038c1.514.521 3.016 1.004 4.581 1.362 1.618.368 3.255.661 4.898.892l.163.02.05.007.025.003c.005 0 .01 0 .015.002l.484.06c.381.046.762.086 1.143.126.702.07 1.405.125 2.107.165 12.119.681 22.297-8.847 25.369-20.27 1.113-4.134 1.186-8.258.858-12.385a2.907 2.907 0 0 1-.166-.999c0-.19.01-.378.023-.568-.409-3.992-1.119-7.985-1.563-11.992-.518-4.68-.807-9.387-.702-14.097.053-2.327.301-4.63.627-6.934l.118-.827a8.08 8.08 0 0 1-3.933-1.995c-2.367 1.365-5.43 1.486-7.766.045-2.618 1.639-6.276 1.788-8.912.185-1.593 1.136-3.601 1.626-5.572 1.195a6.471 6.471 0 0 1-2.522-1.194 7.229 7.229 0 0 1-1.628.103l-.112.063c-1.251.658-2.637 1.092-4.064 1.043a9.629 9.629 0 0 1-3.152-.637c-1.076.649-2.253 1.091-3.513 1.25-1.84.232-3.825-.175-5.355-1.217-2.797 1.59-6.236 1.835-9.254.767a8.514 8.514 0 0 1-2.475 2.642c.179.641.236 1.325.175 1.983-.102 1.083-.373 2.053-.818 2.925.469.974.61 2.169.347 3.369-.374 1.712-1.371 3.2-2.662 4.359a8.181 8.181 0 0 1-4.054 6.714 3.52 3.52 0 0 1-.369.184 1.849 1.849 0 0 1-.384.386c-1.552 1.432-4.009 1.318-5.954.509-.038.001-.075.005-.113.005-.695.018-1.169-.252-1.45-.651a6.6 6.6 0 0 0-.847.098 11.802 11.802 0 0 0-3.103 1.044c-2.427 1.247-3.55 3.451-3.886 6.1-.366 2.89.466 5.834 2.706 7.79 1.088.951 2.479 1.547 3.894 1.798 1.562.278 3.232-.406 4.385.934.231.265.389.636.264.994-.391 1.117-1.036 1.545-2.044 1.7 1.457 1.725 2.951 3.393 4.606 4.943 1.791 1.68 3.642 3.308 5.257 5.161 1.707 1.96 3.249 4.039 4.32 6.417.612 1.368 1.103 2.777 1.633 4.177l.094.244c.59 1.487 1.375 2.921.467 4.474-.361.611-1.178 1.202-1.931 1.104-2.118-.271-2.828-1.7-3.48-3.563-.492-1.408-.868-2.855-1.397-4.25a16.394 16.394 0 0 0-.32-.768c-1.221.341-2.565.071-3.655-.625a8.855 8.855 0 0 1-3.702.751c-1.669-.029-3.194-.492-4.505-1.327-.104-.028-.209-.055-.313-.084-1.995.762-4.33.626-6.136-.61a6.475 6.475 0 0 1-2.423-3.059c-1.511-.028-3.005-.563-4.088-1.634a6.103 6.103 0 0 1-1.747-3.567c-1.301-.257-2.52-.885-3.476-1.943-.799-.883-1.284-2.008-1.448-3.175-1.584-.452-3.012-1.484-3.792-2.924a5.54 5.54 0 0 1-.476-4.117l-.092-.132c-1.631-.853-2.876-2.249-3.004-4.242a4.945 4.945 0 0 1 .179-1.673 5.018 5.018 0 0 1 .138-1.782c-2.194-2.131-2.989-5.554-1.798-8.384-2.144-2.303-2.71-5.947-1.138-8.681-1.079-1.302-1.633-2.962-1.54-4.735.115-2.214 1.131-4.147 2.347-5.937-.903-.997-1.384-2.387-1.349-3.729.05-1.945 1.086-3.62 2.382-5.008-1.131-3.425.133-7.141 2.909-9.31-.562-.923-.77-2.068-.587-3.227.321-2.026 1.843-3.406 3.486-4.497-.344-1.117-.254-2.322.293-3.476.73-1.54 2.106-2.517 3.543-3.343.371-3.415 4.193-6.332 7.398-4.57-.795-2.541 1.494-5.285 4.127-5.576 1.289-3.901 5.735-6.36 9.732-5.391 2.044-2.79 5.848-3.863 9.078-2.667 3.551-2.717 7.956-3.12 12.111-1.74Zm-25.294 76.6c2.495-.135 4.366 1.898 5.68 3.758 1.234 1.746-1.931 3.589-2.854 1.666-.331-.687-.707-1.413-1.211-2.014a5.565 5.565 0 0 0-.234.367l-.074.127c-.055.092-.113.187-.161.285.005.018-.07.248-.072.258-.206.623-.655 1.024-1.267 1.239-.79.276-1.537-.318-1.79-1.014-.404-1.111.534-2.08 1.509-2.521-.958-.155-1.9.17-2.592.906-.096.103-.256.02-.261-.107-.081-1.746 1.748-2.865 3.327-2.95Z" clip-rule="evenodd"></path><path fill="#000" fill-rule="evenodd" d="M190.272 151.782c-1.847.534-3.83.582-5.713.03-1.708-.5-3.461-1.601-4.718-3.059-1.117-1.295-1.84-2.868-1.811-4.547a.741.741 0 0 1 .177-.477.839.839 0 0 1 .443-.265.811.811 0 0 1 .518.045.689.689 0 0 1 .341.335c.193.253.385.503.579.746 1.553 1.915 3.057 3.346 5.392 3.86a6.582 6.582 0 0 0 3.694-.27c1.243-.455 2.367-1.255 3.248-2.279.398-.463.867-.652 1.327-.655.52-.003 1.035.238 1.423.624.381.38.636.896.659 1.435.02.473-.134.968-.546 1.409a11.1 11.1 0 0 1-5.013 3.068Zm-.056-23.986c1.893 1.149 4.779 3.829 2.742 6.679-2.398 2.512-5.851-.369-7.552-1.671-1.577-1.01-3.35 1.587-1.886 2.766 12.293 9.088 17.282-7.474 7.654-9.125-1.061-.182-1.454.995-.958 1.351Zm-17.714-5.057c-.608-.389-1.324-.523-2.118-.162-.62.282-1.707 1.22-2.464 2.454-.518.844-.885 1.835-.808 2.866a.65.65 0 0 1-.211.547.818.818 0 0 1-.457.202 1.176 1.176 0 0 1-.482-.043c-.276-.086-.421-.264-.476-.41-.53-1.405-.302-2.973.292-4.388.801-1.909 2.257-3.508 3.211-4.024 1.631-.883 3.557-.923 5.191-.024 1.391.765 2.261 2.001 3.126 3.26.184.268.366.534.555.795.378.523.415 1.042.269 1.487-.162.493-.576.909-1.093 1.127-.478.201-1.033.229-1.523.022-.415-.174-.796-.515-1.037-1.092-.405-.973-1.081-2.047-1.975-2.617Zm30.91 2.164c-.417.217-.743.282-1.205.144a1.725 1.725 0 0 1-.707-.421 1.403 1.403 0 0 1-.392-.71c-.136-.666-.501-1.29-1.021-1.697a2.052 2.052 0 0 0-1.63-.428c-.672.112-1.312.542-1.753 1.05-.148.17-.263.363-.379.554-.218.358-.429.691-.729.955a.707.707 0 0 1-.45.169.686.686 0 0 1-.201-.031c-.669-.671-.798-1.179-.776-1.684.022-.529.231-1.065.569-1.564.792-1.173 2.295-2.134 3.309-2.352 1.39-.298 2.77.06 3.876.835 1.138.797 1.981 2.035 2.244 3.43.064.336.037.699-.091 1.013a1.42 1.42 0 0 1-.664.737Zm-27.846-14.664c-.834.811-1.82.937-2.819 1.049-.554.062-.997.113-1.433.211-1.198.27-2.382.677-3.462 1.262-1.129.613-2.359 1.351-3.244 2.297-.211.225-.409.461-.608.698-.181.215-.356.423-.54.623-.211.231-.412.472-.611.712-.124.203-.148.253-.173.305a6.99 6.99 0 0 1-.13.259 5.223 5.223 0 0 1-.231.397c-.139.233-.214.297-.278.325a.577.577 0 0 1-.307.059.507.507 0 0 1-.264-.129c-.428-.361-.555-.954-.542-1.583.02-.954.373-2.012.698-2.661.755-1.51 1.804-3.08 3.064-4.207 1.439-1.286 3.012-2.26 4.82-2.931 1.123-.417 2.423-.8 3.647-.751.881.034 1.722.296 2.416.949.427.401.631.971.631 1.541 0 .581-.212 1.165-.634 1.575Zm29.542 7.428a.46.46 0 0 1-.481.216.486.486 0 0 1-.247-.12.463.463 0 0 1-.139-.239c-.553-2.428-1.628-4.234-3.922-5.399-1.129-.573-2.427-.937-3.655-1.227-.357-.085-.734-.139-1.114-.195-1.191-.173-2.39-.372-3.166-1.333-.468-.579-.664-1.319-.553-1.996a2.121 2.121 0 0 1 1.156-1.573c1.688-.871 3.786-.016 5.491.713l.372.158c1.667.703 3.187 1.63 4.437 2.957.992 1.052 1.911 2.608 2.281 4.209.308 1.331.236 2.69-.46 3.829Z" clip-rule="evenodd"></path></svg>