<svg xmlns="http://www.w3.org/2000/svg" width="259" height="324" fill="none" id="man"><path fill="#fff" fill-rule="evenodd" d="M245.914 194.941a104.754 104.754 0 0 0 6.356-3.636c1.465-.877.168-3.084-1.334-2.287-.768.408-1.533.821-2.301 1.226a13.425 13.425 0 0 0 1.667-1.705l-.035-.035c1.936-1.735-.551-5.009-2.752-3.584-1.942 1.408-3.902 2.845-6.131 3.772-4.616 1.959-9.708 2.283-14.663 2.339-1.814-.136-3.546.178-5.305.528.69-2.768 2.416-4.858 3.332-7.54.675-2.707-3.231-4.55-4.615-1.948a59.45 59.45 0 0 0-.98 1.935c-2.992 2.722-7.988 2.482-11.006 5.405-1.719 1.526-2.56 3.597-2.892 5.675-.226 1.412.125 2.826-.728 4.076-4.124 5.835-10.639 15.058-13.949 21.48-2.342-15.26-8.598-34.133-15.061-48.086-2.137-4.462-4.582-8.822-7.792-12.604.364-1.262-.92-3.501-1.737-2.812-2.513-3.071-6.956-3.866-10.529-5.393-4.822-2.063-8.824-6.351-10.79-11.225-2.528-9.281-8.749-10.46-17.377-10.05-8.257-.01-14.366 3.523-16.168 11.932-3.66 6.382-12.302 5.327-18.52 7.016-4.556 1.042-8.978 2.652-13.18 4.696-4.676-4.437-21.42 14.182-22.942 18.974.896.173 1.787.383 2.669.637.786.228.456 1.415-.337 1.225-.986-.237-1.979-.4-2.976-.513-.03.095-.057.19-.077.284l-.336-.025c.248.129.487.279.72.473.563.467-.17 1.37-.768.997-.563-.422-1.301-.355-1.977-.497-.04 1.391-5-.165-5.77-.625-3.423-.429-6.945.031-10.141-1.621-4.253-.896-8.537-1.886-12.742-3.027-1.113.434-2.16 1.987-1.276 3.127.498.519-.142 1.366-.768.997-2.1-1.237-3.724-3.167-5.101-5.247-.648-.654-1.799-.513-2.67-.785-.116.21-.185.443-.184.682-3.694.608-1.059 4.645.798 5.902-.985.642-1.022 1.898-.936 2.948-.209.374-.278.837-.097 1.256.695 1.601 2.197 2.95 3.34 4.247 1.26 1.433 2.385 2.874 3.92 4.035 5.85 4.461 12.909 6.955 20.15 7.93 2.572.395 6.27 1 7.863 3.175-.39 2.581-1.108 5.057-1.759 7.574-.91 3.342-.848 6.84-.86 10.246-.127-.102-.371-.081-.408.114-.211 1.412-.369 2.856-1.227 4.043-.752 2.206-1.252 4.559-1.534 6.877-1.126 10.99-1.395 22.303 1.145 33.121a39.203 39.203 0 0 0 4.746 11.339c.647 1.048 1.688 1.355 2.623 1.149 3.13 1.626 7.07 2.147 10.443 1.734 11.498-3.256 7.492 4.585 23.612 2.184 27.825-3.546 55.946 3.422 83.712-.669.684 5.284 9.636 3.768 12.746 1.535 9.324-6.935 13.954-28.889 18.633-40.026 3.217-8.778 8.603-24.326 15.656-30.216 2.115-1.655 4.672-2.526 7.23-3.23 9.547-2.461 19.13-4.788 28.695-7.181 1.622-.399 1.331-3.167-.404-2.989-2.302.235-4.612.449-6.921.671Z" clip-rule="evenodd"></path><path fill="#000" fill-rule="evenodd" d="M33.39 193.294c-.647-.08-1.28-.311-1.91-.492a30.556 30.556 0 0 1-2.831-.983c-1.914-.767-3.771-1.674-5.512-2.784-2.812-1.794-5.297-4.094-7.17-6.862l-.13-.193c-1.069-1.631-3.042-5.25-.83-6.488-1.426-1.192-2.774-3.333-2.697-4.986.107-2.337 2.972-2.306 4.453-1.315.97.649 1.696 1.558 2.425 2.452a40.41 40.41 0 0 0 3.287 3.561l.246.231a3.174 3.174 0 0 1-.102-.279c-.494-1.541.095-3.547 1.636-4.252.942-.433 1.92-.169 2.834.198l.14.057c1.23.509 2.474.96 3.754 1.321 5.219 1.473 10.665 1.718 16.012 2.454 2.06.285 4.158.644 6.207 1.173.782-3.32 2.698-6.503 4.777-9.122 9.955-12.527 26.373-16.667 41.392-19.347 1.369-.243 2.503 1.57 3.3 1.141 1.51-.811 2.839-1.961 4.005-3.21 2.487-2.665 4.251-5.8 6.324-8.769 1.024-1.467 3.382-.154 2.431 1.42l-.465.77c-1.918 3.152-4.042 6.4-6.792 8.845-1.462 1.297-3.084 2.322-4.939 2.963-1.405.484-3.376.892-4.914.422l-.185-.269.185.269c4.014 5.819 9.05 10.743 14.357 15.391 5.357 4.688 11.136 8.887 16.95 12.992l.484.342c9.471-6.911 17.472-15.925 23.085-26.224-1.176-.142-2.34-.896-3.346-1.459-1.211-.68-2.349-1.492-3.237-2.574-1.933-2.356-1.681-5.394-2.03-8.253-.021-.178.214-.222.321-.133 1.048.87 1.416 2.297 1.853 3.529.482 1.355 1.027 2.471 2.132 3.424 1.029.888 2.284 1.541 3.503 2.122.628.298 3.749 1.065 4.104 1.699 5.392-1.266 10.644.922 14.639 4.612 3.86 3.566 6.693 8.2 9.195 12.776 2.668 4.882 4.855 9.972 6.739 15.202 1.91 5.31 3.374 10.735 4.179 16.323.679 4.711 1.096 9.497 1.366 14.261l.033.595a749.887 749.887 0 0 1 12.249-18.601c-.949-2.534.101-5.121 1.878-7.078 1.969-2.166 4.692-3.172 7.297-4.343l.343-.155c1.255-.573 2.506-1.204 3.591-2.062 1.044-.829 1.81-1.97 2.909-2.733 1.597-1.112 4.496-.875 4.57 1.553.038 1.334-.535 2.796-1.059 3.995-.593 1.355-1.394 2.583-2.345 3.711a.683.683 0 0 1-.14.127l-.037.023c1.314.218 2.639.393 3.989.455 2.723.124 5.476-.076 8.142-.651a29.393 29.393 0 0 0 7.829-2.875c2.098-1.137 4.042-2.608 6.425-2.954a6.97 6.97 0 0 1 .67-.068c.38-.021.76.427.61.803-.082.207-.169.412-.264.619-.824 1.816-2.087 3.577-3.664 4.914l-.122.102a19.727 19.727 0 0 0 1.642-.651c3.167-1.427 6.04-3.583 9.435-4.449.161-.042.323-.081.486-.116 1.05-.227 1.604.915.987 1.697-.1.127-.199.251-.302.376a38.522 38.522 0 0 1-5.029 5.195 39.715 39.715 0 0 1-1.945 1.553c-.28.211-.561.417-.845.62l-.14.099c.332-.235.659-.473.985-.719a67.718 67.718 0 0 0 6.133-2.202c.796-.328 1.415.48 1.5 1.143.283 2.224-2.185 3.832-3.791 4.902-1.609 1.073-3.382 1.889-5.197 2.544-3.489 1.262-7.154 1.835-10.813 2.348l-1.777.248c-7.035.984-14.382 2.16-19.429 7.636-2.829 3.069-4.743 6.881-6.495 10.633-1.749 3.747-3.285 7.594-4.743 11.462-1.51 4.002-2.826 8.079-4.225 12.122-1.285 3.713-2.819 7.378-4.338 11.006l-.24.572c-3.226 7.71-7.08 14.972-12.45 21.41-.885 1.063-2.316-.446-1.498-1.499 5.617-7.245 9.526-15.794 12.752-24.322 1.468-3.88 2.698-7.854 4.109-11.755l.84-2.318a511.595 511.595 0 0 1 3.432-9.241c1.494-3.878 3.135-7.71 5.013-11.417l.2-.39c1.838-3.577 4.023-7.101 7.03-9.808 5.412-4.873 12.614-6.042 19.577-6.968l2.19-.289c2.944-.391 5.896-.823 8.759-1.611 1.652-.452 3.266-1.031 4.783-1.83a19.612 19.612 0 0 0 1.764-1.046 48.51 48.51 0 0 1-4.956 1.175c-.822.15-1.635.262-2.447.34-2.089.207-4.162.199-6.302.087-.181-.011-.241-.296-.046-.332a75.041 75.041 0 0 0 4.468-.956l.446-.109c.008-.247.106-.51.308-.759.74-.9 2.145-1.361 3.119-1.997a34.253 34.253 0 0 0 2.951-2.154 37.994 37.994 0 0 0 2.487-2.225l.238-.235-.238.235c-2.151.993-4.19 2.267-6.436 3.054-1.785.627-3.657 1.05-5.545 1.2l-.118.009-.117.008c-1.971.142-3.955.085-5.896.511-.218.049-.286-.243-.091-.325 1.696-.706 3.46-.979 5.244-1.308a.535.535 0 0 1 .304-.345l.456-.218c1.359-.653 2.625-1.311 3.754-2.371a11.928 11.928 0 0 0 2.451-3.244c-2.495.547-4.686 2.439-6.955 3.502a30.973 30.973 0 0 1-7.775 2.467l-.306.052c-5.022.838-11.061.731-15.56-1.881-.143-.084-.04-.276.108-.253 1.276.209 2.539.456 3.803.676-.247-.226-.357-.632-.072-.957a13.625 13.625 0 0 0 2.606-4.415l.109-.318c.265-.755.711-1.927.255-2.608-.435-.649-1.46-.56-2.072-.285-1.274.575-2.121 2.01-3.195 2.876-1.17.947-2.501 1.649-3.864 2.277l-.287.131c-2.357 1.06-4.876 1.953-6.729 3.825-.997 1.006-1.855 2.264-2.142 3.673a4.24 4.24 0 0 0 .042 1.953c.137.501.425.81.26 1.319-.215.657-.978 1.444-1.371 2.029a901.21 901.21 0 0 0-1.365 2.033c-.906 1.357-1.808 2.718-2.71 4.077a774.084 774.084 0 0 0-7.083 10.883l-.857 1.344-.453.708-.772 1.215a.6.6 0 0 1-.011.334 1.528 1.528 0 0 1-.685.818l-.054.032c-4.509 7.129-8.945 14.304-13.426 21.45a320.89 320.89 0 0 0-.657 6.547c-.442 4.942-.744 9.896-.841 14.856-.047 2.401.146 4.817.249 7.216.051 1.144.12 2.288.211 3.431l.066.81c.09 1.114.14 2.219-.26 3.281-.355.932-1.437 1.141-2.077.431-8.351-.336-16.709-.592-25.067-.751-14.959-.287-29.926-.243-44.888.047-7.514.146-15.031.351-22.544.604-3.701.123-7.405.296-11.108.347-1.996.027-5.136-.7-5.297-2.945l-.004-.069c-.25.068-.507.123-.771.163a.869.869 0 0 1-.335-.012l-.052-.013c-2.974.907-6.737-.387-9.563-1.142l-.233-.061c-2.698-.704-4.866-1.71-6.634-3.946-3.095-3.916-4.152-9.175-4.7-14.021-.516-4.561-.546-9.206.081-13.759-.37-3.709-.008-7.536.413-11.225.206-1.824.45-3.646.741-5.459.163-1.012.376-2.014.594-3.014.087-.399.159-.829.269-1.245l.05-.177c-.338.044-.708-.03-1.065-.226-.85-.467-1.097-1.412-1.111-2.316-.047-2.727.278-5.532.566-8.241a95.97 95.97 0 0 1 1.206-8.093l.135-.689c.394-1.998.844-4.061 1.638-5.939-2.981-.507-5.954-1.046-8.846-1.963a26.844 26.844 0 0 1-4.128-1.693Zm155.59 28.374c-.047.01-.091.023-.135.036-1.192.334-2.396.617-3.596.921-2.075.522-4.103 1.106-6.032 2.012-.404 5.102-1.003 10.188-1.572 15.276l-.114 1.017a149.248 149.248 0 0 1 2.707-4.825c2.85-4.85 5.765-9.663 8.742-14.437Zm-143.259.505c.007.606-.12 1.236-.188 1.82-.11.947-.198 1.898-.31 2.844a126.51 126.51 0 0 0-.564 5.717c-.091 1.22-.15 2.444-.203 3.667 1.198-4.478 2.784-8.859 4.293-13.247a5.188 5.188 0 0 1-.776-.159l-.448-.121c-.264-.068-1.12-.278-1.804-.521Zm147.032-4.17.009.201c.031.712-.395 1.113-.913 1.217.3-.473.602-.947.904-1.418Zm-137.07-33.757c1.261.112 2.497.381 3.676.845l.114.045c.872.337 2.146.76 2.432 1.691.08.264-.136.481-.383.503-.946.076-2.062-.939-2.938-1.281a13.837 13.837 0 0 0-3.034-.814 13.824 13.824 0 0 0-6.94.765c-.13.051-.21-.154-.093-.215 2.205-1.201 4.658-1.761 7.166-1.539Zm-26.728 6.045a19.953 19.953 0 0 1-.435-.4c-1.133-1.072-2.136-2.323-2.878-3.697l-.196-.372c-.605-1.172-1.347-2.841.074-3.685.85-.505 1.872-.379 2.819-.072l.183.061c.423.148.83.326 1.194.495 1.578.725 2.97 1.779 4.428 2.709 1.58 1.009 3.14 1.653 4.962 2.03l.172.035c1.711.338 3.566.556 4.76 1.964.3.355.025 1.02-.492.845-3.3-1.114-6.793-1.359-9.822-3.187-1.255-.757-2.443-1.625-3.725-2.342-.68-.381-1.383-.714-2.131-.942l-.409-.12c-.24-.07-.526-.139-.718-.071-.366.127-.249.323-.136.665l.012.035c.89 2.752 3.424 5.055 5.774 6.579.538.351 1.09.672 1.652.97 3.804 2.029 8.06 2.973 12.24 4.093 0 0 2.417.675 3.218.929.892-.074 1.908.241 2.58.617a4.67 4.67 0 0 1 1.576 1.433s.382.319.452.814c.2.458.336.953.404 1.469.038.302-.039.534-.182.699.432 6.635-1.36 13.232-3.38 19.538l-.2.622-.128.394c-2.178 6.685-4.677 13.322-5.793 20.292-.746 4.656-.722 9.474-.175 14.152l.038.322c.54 4.422 1.577 9.383 4.388 12.942 1.434 1.816 3.132 2.624 5.304 3.209l.119.031c1.965.518 3.993 1.251 6.019 1.473 1.88.205 3.456-.494 5.149-1.15l.002-.002c3.564-3.155 5.182-7.75 6.378-12.387 3.1-12 2.715-24.457.957-36.633-.917-6.362-2.163-12.669-3.406-18.973-.62-3.151-1.29-6.296-1.846-9.458l-.33-1.861a102.828 102.828 0 0 1-.509-3.108c-.203-1.397-.264-2.771-.334-4.176-1.707-2.83-4.185-5.161-7.056-6.833-2.056-1.198-4.232-2.029-6.477-2.631-6.421-1.731-13.42-1.609-19.88-2.94-2.171-.447-4.231-1.11-6.29-1.905l-.281-.11c-.945-.367-1.908-.572-2.377.542-.334.792-.135 1.616.366 2.282 1.227 1.632 3.695 2.388 5.552 2.976 1.117.355 2.258.636 3.412.845 1.153.21 2.31.262 3.418.67.427.157.511.835 0 .955-1.403.328-2.814.047-4.209-.226a29.318 29.318 0 0 1-4.506-1.274c-.27-.1-.55-.205-.835-.317l-.215-.085c.222.161.444.32.668.478.059.042.023.154-.055.127-3.448-1.287-6.584-3.608-9.014-6.355l-.122-.138c-.855-.98-2.805-3.948-4.449-3.121-1.543.775 1.088 3.762 2.088 4.984l.116.143c1.136.03 2.237.737 3.158 1.308 1.6.992 3.27 1.845 4.974 2.644 3.384 1.592 6.978 2.714 10.326 4.386.045.023.01.08-.031.074-2.132-.341-4.24-.884-6.3-1.558l-.092-.029-.092-.03a57.926 57.926 0 0 1-3.805-1.41 39.423 39.423 0 0 1-4.06-1.923c-1.192-.651-2.515-1.824-3.896-1.997a1.772 1.772 0 0 0-.393-.011c-1.587.133-.275 2.762.169 3.549a18.933 18.933 0 0 0 2.602 3.571c2.035 2.211 4.5 3.963 7.169 5.326.91.465 1.842.875 2.788 1.252Z" clip-rule="evenodd"></path><path fill="#fff" fill-rule="evenodd" d="M129.727 53.95c11.996 0 27.481 7.527 28.801 15.237 1.556 9.086 9.889 43.95 8.007 55.13-1.881 11.18-12.021 19.229-28.246 19.229-16.225 0-28.335-8.852-31.116-11.891-2.78-3.039-7.933-13.89-7.933-13.89s-8.688-1.156-8.729-8.24c-.041-7.085 5.648-9.662 5.648-9.662s-2.028-27.957 3.08-35.236c5.109-7.279 18.492-10.678 30.488-10.678Z" clip-rule="evenodd"></path><path fill="#000" fill-rule="evenodd" d="M157.794 67.943c-.009-.163.228-.182.272-.038 2.588 8.553 4.183 15.22 5.863 23.988l.496 2.58c1.325 6.88 2.664 13.77 3.795 20.684l.066.412c.567 3.579.893 7.193.183 10.779-.663 3.352-2.476 6.425-4.829 8.872-4.549 4.73-10.87 7.685-17.229 9.006-3.216.668-6.533.925-9.809.693a35.214 35.214 0 0 1-4.864-.685l-.176-.038c-1.612-.348-3.043-.763-3.899-2.281-.216-.382-.129-1.037.323-1.234.854-.368 1.481-.522 2.413-.416.889.101 1.758.37 2.636.537 1.68.319 3.387.479 5.096.518 3.357.074 6.723-.347 9.932-1.349 5.514-1.722 11.117-5.017 14.339-9.946 3.789-5.798 2.28-12.835 1.276-19.238l-.03-.193a3198.283 3198.283 0 0 1-2.998-19.639l-.416-2.807c-1.094-7.416-2.127-12.71-2.44-20.205ZM101.81 49.79c2.752-1.814 6.172-2.26 9.404-2.235l.405.005c4.139.063 24.974.559 31.949.712l1.66.035c2.196.041 6.626.084 8.908.126l.132.002c1.119.022 2.239.03 3.359.066l.164.006c.839.036 1.537.161 2.194.753.334.3.464.757.433 1.192l-.005.057 1.663.146c1.129.1 1.726 1.112 1.278 2.137l-.023.05c-.796 1.7-1.405 6.645-1.832 8.473a24.468 24.468 0 0 0-.509 2.921c-.084.774-.093 1.55-.524 2.23-.919 1.452-3.505 1.439-3.551-.617-.002-.066 0-.13.006-.19-6.507-.286-15.391-.259-21.889.13a122.274 122.274 0 0 0-22.559 3.496c-1.224.309-2.726.493-3.82 1.154-1.225.744-1.202 2.078-1.069 3.348.143 1.346.381.652.719 1.88l.02.077c.349 1.332.78 2.648 1.35 3.9.326.714.85 1.4.651 2.223-.112.463-.478.957-.813 1.28-1.53 1.47-4.116.533-5.155 2.545-1.088 2.104-1.115 4.954-1.207 7.282l-.006.137a44.652 44.652 0 0 0 .057 4.812c.095 1.458.484 2.902-.015 4.303-.363 1.019-1.55 1.114-2.172.286a4.38 4.38 0 0 1-.197-.291l-.06-.098-.004.002a4.5 4.5 0 0 1 .166.285c.057.108-.084.226-.171.133-1.462-1.591-3.598-1.274-5.252-.16-1.675 1.132-2.336 3.284-2.423 5.214-.097 2.14.093 4.65.984 6.628.377.837.913 1.606 1.803 1.925.403.144.788.125 1.208.158.437.034.963.254 1.388.225.552-.04 1.047.59.89 1.118l-.011.035a2.11 2.11 0 0 1-.025.074c.02.019.042.043.057.077 1.605 3.282 3.807 6.203 6.24 8.912 1.22 1.355 2.572 2.6 3.985 3.752.697.568 1.432 1.137 2.208 1.595.257.15.494.252.784.334.135.038.289.057.42.102l.136.046.027.009a.996.996 0 0 1 .845.706c.336 1.052-.275 1.982-1.319 2.272-1.13.316-2.196-.239-3.092-.877l-.06-.043c-1.827-1.316-3.511-2.794-4.969-4.518-2.884-3.405-4.69-7.347-5.526-11.707-.208.446-.486.835-.97 1.105-.752.423-1.65.423-2.474.281-1.659-.281-3.072-1.293-4.016-2.663-.98-1.42-1.346-3.145-1.568-4.825-.22-1.682-.327-3.371-.108-5.057.315-2.423 1.331-4.817 3.307-6.144-1.48-3.224-1.74-6.838-1.633-10.367.128-4.346.878-8.74 1.455-13.045l1.64-12.239.067-.493c.395-2.88.877-5.774 1.954-8.487 1.063-2.674 2.677-5.092 5.111-6.696Zm-6.9 57.902c2.708-1.315 5.634-.104 7.092 2.447 1.267 2.218-2.501 3.684-3.13 1.398l-.018-.071c-.414-1.731-2.1-3.227-3.86-3.459-.146-.021-.254-.233-.084-.315Z" clip-rule="evenodd"></path><path fill="#000" fill-rule="evenodd" d="M143.152 128.274a8.601 8.601 0 0 1-3.614-2.781 1.671 1.671 0 0 1-.338-1.297c.076-.467.352-.889.728-1.173.377-.284.849-.424 1.305-.353.397.062.791.279 1.104.73l.065.09a5.695 5.695 0 0 0 2.086 1.751 4.7 4.7 0 0 0 2.582.454c1.738-.196 2.935-1.136 4.208-2.413.158-.161.316-.327.474-.496a.746.746 0 0 1 .394-.303.864.864 0 0 1 .97.332c.097.143.153.32.135.524-.117 1.323-.808 2.503-1.79 3.43-1.091 1.03-2.537 1.742-3.898 1.992-1.499.275-3.027.078-4.411-.487Zm5.119-20.408c1.595.971 4.026 3.233 2.31 5.638-2.021 2.12-4.929-.311-6.362-1.411-1.329-.852-2.823 1.34-1.59 2.335 10.358 7.671 14.561-6.308 6.449-7.702-.894-.154-1.225.84-.807 1.14Zm-18.56-8.923c.176-2.189 3.508-2.686 3.84-.52.296 1.94-.053 3.723-.927 5.47-.834 1.668-2.932.89-3.091-.63-.213-2.037.068-2.958.178-4.32Zm25.365-.969c.465-.609 1.136-1.024 1.939-.79 2.511.735 1.771 4.301.889 6.037-.479.942-2.028 1.181-2.728.351-1.14-1.353-1.687-4.056-.236-5.39.039-.068.083-.138.136-.208Zm-22.487-8.608.397-.07c1.227-.212 2.752-.416 3.62.57.461.524.619 1.497 0 1.998-1.088.88-2.292.54-3.596.614a14.3 14.3 0 0 0-3.143.536c-2.272.65-4.123 1.835-6.063 3.137-.254.17-.514-.155-.393-.393 1.12-2.195 3.29-3.997 5.464-5.096 1.161-.587 2.43-1.073 3.714-1.296Zm20.198-.983.304.062c3.304.69 7.596 2.07 9.16 5.317.06.459-.003.557-.054.621l-.017.022c-.043.055-.076.13-.275.193a8.562 8.562 0 0 1-.168-.042c-.717-.188-1.284-.447-1.833-.716l-.596-.293c-.691-.34-1.388-.666-2.127-.907a25.038 25.038 0 0 0-4.844-1.07 1.988 1.988 0 0 1-.972-.37 1.464 1.464 0 0 1-.544-.827c-.116-.467-.082-.82.168-1.242.188-.316.458-.535.767-.661a1.798 1.798 0 0 1 1.031-.087Z" clip-rule="evenodd"></path></svg>