<svg width="62" height="80" viewBox="0 0 62 80" fill="none" xmlns="http://www.w3.org/2000/svg">
<path d="M1.94807 79.3675C0.291868 79.4143 0.155368 79.1599 0.466348 77.7202C0.839428 75.9931 0.926469 74.2034 1.31103 72.4796C2.43611 67.4351 3.05258 62.2753 5.21246 57.4717C6.74596 54.0612 7.85964 50.4638 9.22474 46.9749C9.81048 45.4778 10.527 44.0285 11.2419 42.5861C11.9362 41.0892 12.0886 39.3975 11.6731 37.8006C11.2493 35.4097 9.76226 33.7489 8.96793 31.677C8.28603 29.8983 8.33863 26.5119 10.5159 24.7249C12.0777 23.443 15.1489 24.6712 15.4359 26.9673C15.8008 29.8864 14.7135 32.6639 14.0598 35.4638L13.3601 35.3537C13.56 33.5031 13.8598 31.6647 14.2583 29.8465C14.4628 29.2491 14.4998 28.6071 14.3653 27.9902C14.2309 27.3733 13.9302 26.8049 13.4957 26.3467C13.307 26.069 13.0413 25.8525 12.7312 25.7239C12.4211 25.5952 12.0802 25.56 11.7504 25.6226C11.4205 25.6852 11.1162 25.8429 10.8748 26.0762C10.6334 26.3095 10.4655 26.6083 10.3917 26.9358C9.96446 28.1372 9.90058 29.4378 10.208 30.6753C10.5155 31.9128 11.1806 33.0322 12.1204 33.894C11.9548 32.5002 11.7694 31.1084 11.6364 29.7115C11.6377 29.3109 11.6802 28.9115 11.7633 28.5196C12.0812 28.7723 12.6482 29 12.6763 29.2817C12.8462 30.9792 12.8893 32.6893 12.9821 34.3948C13.0201 35.0927 13.0394 35.7948 13.1355 36.4855C13.2228 37.1123 13.4029 37.7261 13.6037 38.6197C15.0765 36.2397 16.3649 33.9624 17.848 31.8199C19.1241 29.8886 20.5705 28.0753 22.1698 26.4018C23.5093 24.9417 24.2512 23.0316 24.2484 21.0502C24.2524 20.8501 24.1857 20.6549 24.06 20.4991C21.2445 17.0602 21.1036 14.5511 23.6758 11.0582C24.2824 10.3762 25.0526 9.85976 25.9139 9.55755C23.2309 12.5742 22.2026 15.7369 24.4514 19.3301C25.2175 17.9465 23.2883 15.9999 25.5267 14.5607C25.6082 15.6736 25.6721 16.5465 25.7398 17.4719C26.3597 16.9671 26.8485 16.3202 27.1649 15.5861C27.4812 14.852 27.6158 14.0523 27.557 13.2551C27.4238 11.7394 27.1373 10.2411 26.7017 8.78321C27.7312 8.48954 28.5289 9.47294 28.7539 11.2615C29.0786 13.8421 28.0295 15.9642 26.8982 18.1468C26.0497 19.7838 25.4988 21.5751 24.7229 23.5308C27.6504 21.5656 30.2766 19.8448 32.8534 18.0528C33.9254 17.3214 34.9288 16.4943 35.8515 15.5817C36.2633 15.1884 36.5168 14.6578 36.5639 14.0903C36.611 13.5228 36.4485 12.9577 36.1072 12.5018C34.9473 10.5092 34.4511 8.19929 34.6903 5.90609C34.8128 3.2067 38.2173 0.792195 40.0923 0.636085C41.6653 0.505135 42.1272 1.86975 42.4171 2.83252C43.6042 6.77479 42.5451 10.1182 38.9603 12.8352C38.2016 13.4102 37.8504 14.5229 37.0626 15.7872C37.9558 15.6412 38.8407 15.4479 39.7135 15.2081C41.8085 14.5363 44.0655 14.5662 46.142 15.2935C49.1001 16.1897 51.2008 14.6203 51.2303 11.5221C51.2465 9.82021 50.9574 8.10007 52.0939 6.53192C53.0159 5.15164 54.4021 4.14755 56.001 3.7018C57.5999 3.25605 59.3056 3.39817 60.8087 4.10237C62.0274 4.66706 61.6721 5.92263 61.3978 6.66398C60.2173 9.85482 58.584 12.7616 55.1234 14.0622C55.0287 14.0978 54.9282 14.2033 54.8503 14.186C52.6045 13.6886 51.484 15.5864 49.6608 16.5802C51.5065 18.1486 53.252 19.6342 55.0001 21.1166C56.77 22.6173 58.3112 24.1798 58.1949 26.8152C58.2785 27.8202 58.5819 28.7947 59.0834 29.6697C59.6729 30.8312 59.8174 32.1682 59.4896 33.4289C59.1619 34.6896 58.3846 35.7869 57.304 36.5143C56.9668 36.4507 56.6455 36.3211 56.3585 36.1331C56.0715 35.945 55.8245 35.7021 55.6316 35.4184C55.4386 35.1346 55.3036 34.8155 55.2343 34.4795C55.1649 34.1434 55.1626 33.797 55.2274 33.4601C55.3543 31.8559 55.6563 30.2655 55.8823 28.6692C55.9303 28.3296 56.1029 27.9522 56.0109 27.6567C54.8573 23.7883 52.2298 20.5282 48.6949 18.5791C44.537 16.1843 40.4425 16.9681 36.0039 18.3743C37.4224 20.2342 37.9977 22.4103 40.7017 22.9557C44.0616 23.6334 45.5719 27.1041 44.8622 30.9645C44.8525 31.0147 44.8348 31.0631 44.8097 31.1077C44.2196 32.1732 44.9895 34.0659 42.8442 34.1897C39.5457 34.38 37.9445 33.7972 37.228 31.5037C36.4535 29.0244 35.7849 26.4962 36.8138 23.8043C37.4271 22.2 36.0008 21.0638 34.9575 20.1489C34.5561 19.7969 33.2982 20.0399 32.6601 20.4089C30.4957 21.6606 28.4341 23.0898 26.3332 24.4511L26.8072 24.7826C26.9382 25.6895 27.0666 26.5967 27.2008 27.5031C27.3898 28.7797 27.5458 30.0627 27.7867 31.3296C27.9722 32.3054 27.23 34.4158 26.3144 34.8143C26.0736 34.875 25.8218 34.8779 25.5796 34.8226C25.3374 34.7674 25.1118 34.6556 24.9211 34.4964C24.6324 34.1776 24.4104 33.8042 24.2682 33.3983C24.1259 32.9923 24.0663 32.562 24.0929 32.1327C24.1194 31.7034 24.2315 31.2837 24.4227 30.8984C24.6138 30.5131 24.8801 30.1698 25.2058 29.8889C26.4793 28.9744 26.1621 27.8369 26.0108 26.7562C25.8863 25.8665 25.1227 25.5166 24.4928 26.3498C21.387 30.4577 18.2413 34.5418 15.3056 38.7703C12.2891 43.2053 9.9879 48.0865 8.48601 53.2356C8.21142 53.834 7.98193 54.452 7.79944 55.0846C8.44111 54.1102 9.0922 53.1418 9.72269 52.1602C11.7787 48.904 14.3449 45.9996 17.323 43.5582C18.3489 42.8132 19.4548 42.185 20.62 41.6852C23.543 40.2982 26.6919 39.4487 29.9159 39.1775C32.617 38.9158 35.4097 38.9401 37.4906 41.2179C37.9021 41.6492 38.2392 42.1459 38.488 42.6876C38.7288 43.6417 39.2282 44.5108 39.931 45.1994C40.4814 45.9208 40.7273 46.8291 40.6158 47.7296C40.5152 48.9401 40.2738 50.1347 39.8965 51.2892C39.5487 52.5116 38.542 52.7162 37.4482 52.5341C36.3297 52.3479 36.247 51.4382 36.2203 50.5493C36.0289 48.2062 36.4866 45.8557 37.5431 43.7556C35.3513 40.5048 32.5878 39.8636 26.7077 41.4089C27.363 42.6774 27.8514 44.0254 28.1607 45.4192C28.29 47.0584 28.095 48.7071 27.5866 50.2708C27.4209 50.7941 25.8786 51.3274 25.1739 51.126C24.93 51.0446 24.7072 50.9101 24.5215 50.7322C24.3358 50.5543 24.1918 50.3374 24.1 50.0972C24.0082 49.8571 23.9707 49.5995 23.9904 49.3431C24.01 49.0867 24.0863 48.8378 24.2136 48.6144C24.7351 47.4928 25.5333 46.4882 25.9629 45.3397C26.1996 44.5755 26.2024 43.758 25.9709 42.9923C25.7425 42.186 25.0335 41.4691 24.1018 41.9262C21.686 43.1113 18.9849 43.5593 16.9362 45.7C12.8768 49.9419 9.29006 54.4461 7.12323 59.9417C5.959 62.8944 5.11234 65.9769 3.86792 68.8923C2.42692 72.2682 2.5466 75.8797 1.94807 79.3675ZM38.0777 11.681C41.1571 10.2805 42.7432 5.26149 41.0973 2.72442C41.0237 2.55004 40.9093 2.39584 40.7639 2.27472C40.6184 2.1536 40.446 2.06909 40.2612 2.02824C40.0764 1.98739 39.8845 1.99141 39.7015 2.03995C39.5185 2.08849 39.3499 2.18014 39.2096 2.30724C36.2155 4.29524 34.6319 6.44471 36.9325 10.8889C37.3542 10.0722 37.7136 9.32014 38.124 8.597C38.5243 7.89177 38.9766 7.2161 39.406 6.52745L39.9139 6.76739C39.3233 8.34772 38.7328 9.92805 38.0777 11.681ZM57.828 7.19346L58.3084 7.69362C56.8515 9.25538 54.8681 10.4088 54.0735 12.6261C56.8333 12.5458 58.9545 10.1013 60.4232 5.50672C55.9409 3.6574 52.7614 5.9705 52.5415 11.4347C54.3582 9.97722 56.0931 8.58533 57.828 7.19346ZM38.3896 24.7625L37.5772 25.1206C38.0164 27.1592 38.3109 29.2443 38.9465 31.2197C39.3585 32.5007 40.6343 32.8289 41.9725 32.7706C43.3389 32.711 42.834 31.4909 43.2456 30.8463C43.3905 30.5768 43.4779 30.2802 43.5019 29.9752C43.793 27.8649 42.6857 24.9311 40.3489 24.5077C40.7493 25.7673 41.2424 27.0798 41.5746 28.4318C41.9016 29.7626 42.0654 31.1336 42.3007 32.487L42.0099 32.7555C41.645 32.3986 41.3395 31.9856 41.1051 31.5321C40.5499 29.801 40.1506 28.0186 39.5656 26.2987C39.2581 25.7272 38.8611 25.2085 38.3896 24.7625ZM57.2774 28.8314C56.8212 29.7288 56.5775 30.7191 56.5651 31.7257C56.5526 32.7324 56.7717 33.7284 57.2054 34.6369C58.6745 32.8253 58.7069 31.3665 57.2774 28.8314ZM38.0571 51.1827C39.6481 49.1729 39.6637 46.8502 37.9362 45.4986C38.2918 47.4862 36.452 49.2576 38.0571 51.1827ZM25.9302 50.0857C27.4692 48.8101 27.6321 48.2341 27.082 46.2328C26.7254 46.3792 26.406 46.6034 26.1472 46.8892C25.8884 47.1749 25.6968 47.5149 25.5863 47.8843C25.4759 48.2536 25.4495 48.643 25.509 49.0239C25.5685 49.4048 25.7124 49.7676 25.9302 50.0857Z" fill="black"/>
</svg>
